<?xml version="1.0" encoding="UTF-8"?>
<svg id="Layer_3" data-name="Layer 3" xmlns="http://www.w3.org/2000/svg" viewBox="0 0 100 100">
  <defs>
    <style>
      .cls-1 {
        fill: #004a52;
      }
    </style>
  </defs>
  <g>
    <path class="cls-1" d="M64.42,66.09c-6.78,0-13.57-2.58-18.73-7.75s-7.76-11.65-7.76-18.73,2.76-13.73,7.76-18.73c10.33-10.33,27.13-10.33,37.46,0,10.33,10.33,10.33,27.13,0,37.46h0c-5.16,5.16-11.95,7.75-18.73,7.75ZM64.42,16.14c-6.02,0-12.03,2.29-16.61,6.87-4.44,4.44-6.88,10.33-6.88,16.61s2.44,12.17,6.88,16.61c9.16,9.16,24.06,9.16,33.22,0h0c9.16-9.16,9.16-24.06,0-33.22-4.58-4.58-10.59-6.87-16.61-6.87Z"/>
    <rect class="cls-1" x="35.46" y="60.46" width="13.23" height="3" transform="translate(-31.49 47.9) rotate(-45)"/>
    <path class="cls-1" d="M22.66,90.48c-1.56,0-3.11-.59-4.3-1.78l-3.02-3.02c-2.37-2.37-2.37-6.23,0-8.6l13.01-13.01c2.37-2.37,6.23-2.37,8.6,0l3.02,3.02c1.15,1.15,1.78,2.67,1.78,4.3s-.63,3.15-1.78,4.3l-13.01,13.01c-1.18,1.19-2.74,1.78-4.3,1.78ZM32.65,65.29c-.79,0-1.58.3-2.18.9l-13.01,13.01c-1.2,1.2-1.2,3.15,0,4.35l3.02,3.02c1.2,1.2,3.15,1.2,4.35,0l13.01-13.01c1.2-1.2,1.2-3.15,0-4.35l-3.02-3.02c-.6-.6-1.39-.9-2.18-.9Z"/>
  </g>
  <path class="cls-1" d="M64.44,57.1c-1.24,0-2.49-.13-3.73-.4-2.56-.55-4.54-2.39-5.28-4.92-.74-2.52-.05-5.24,1.8-7.09l12.26-12.26c1.85-1.85,4.57-2.54,7.09-1.8,2.53.74,4.37,2.72,4.92,5.28,1.26,5.84-.5,11.85-4.72,16.07h0c-3.32,3.32-7.75,5.12-12.34,5.12ZM74.53,33.33c-1.08,0-2.12.42-2.92,1.22l-12.26,12.26c-1.09,1.09-1.48,2.63-1.04,4.12.43,1.46,1.56,2.52,3.04,2.84,4.84,1.05,9.82-.42,13.31-3.91h0c3.5-3.5,4.96-8.47,3.91-13.31-.32-1.47-1.38-2.61-2.84-3.04-.4-.12-.81-.18-1.21-.18Z"/>
</svg>