<?xml version="1.0" encoding="UTF-8"?>
<svg id="Layer_3" data-name="Layer 3" xmlns="http://www.w3.org/2000/svg" viewBox="0 0 100 100">
  <defs>
    <style>
      .cls-1 {
        fill: #004a52;
      }

      .cls-2 {
        fill: #c49e29;
      }
    </style>
  </defs>
  <g>
    <path class="cls-1" d="M78.07,89.29H21.93c-4.82,0-8.73-3.92-8.73-8.73V24.42c0-4.82,3.92-8.73,8.73-8.73h56.13c4.82,0,8.73,3.92,8.73,8.73v56.13c0,4.82-3.92,8.73-8.73,8.73ZM21.93,18.69c-3.16,0-5.73,2.57-5.73,5.73v56.13c0,3.16,2.57,5.73,5.73,5.73h56.13c3.16,0,5.73-2.57,5.73-5.73V24.42c0-3.16-2.57-5.73-5.73-5.73H21.93Z"/>
    <rect class="cls-1" x="14.7" y="32.95" width="70.6" height="3"/>
    <rect class="cls-1" x="28.13" y="12.21" width="3" height="9.96"/>
    <rect class="cls-1" x="68.87" y="12.21" width="3" height="9.96"/>
  </g>
  <g>
    <path class="cls-2" d="M50,76.88c-8.86,0-16.06-7.21-16.06-16.06s7.21-16.06,16.06-16.06,16.06,7.21,16.06,16.06-7.21,16.06-16.06,16.06ZM50,47.75c-7.2,0-13.06,5.86-13.06,13.06s5.86,13.06,13.06,13.06,13.06-5.86,13.06-13.06-5.86-13.06-13.06-13.06Z"/>
    <path class="cls-2" d="M55.75,62.32h-5.75c-.83,0-1.5-.67-1.5-1.5v-7.35h3v5.85h4.25v3Z"/>
  </g>
</svg>