<?xml version="1.0" encoding="UTF-8"?>
<svg id="Layer_3" data-name="Layer 3" xmlns="http://www.w3.org/2000/svg" viewBox="0 0 100 100">
  <defs>
    <style>
      .cls-1 {
        fill: #004a52;
      }
    </style>
  </defs>
  <path class="cls-1" d="M50,86.71v-3c18.3,0,31.05-19.17,31.05-36.38s-13.93-31.05-31.05-31.05-31.05,13.93-31.05,31.05h-3c0-18.77,15.27-34.05,34.05-34.05s34.05,15.27,34.05,34.05-13.98,39.38-34.05,39.38Z"/>
  <path class="cls-1" d="M43.84,75.22c-15.38,0-27.88-12.51-27.88-27.88h3c0,13.72,11.16,24.88,24.88,24.88s24.88-11.16,24.88-24.88h3c0,15.37-12.51,27.88-27.88,27.88Z"/>
  <path class="cls-1" d="M43.84,75.22c-15.38,0-27.88-12.51-27.88-27.88h3c0,13.72,11.16,24.88,24.88,24.88v3Z"/>
  <path class="cls-1" d="M71.72,47.34h-3c0-10.32-8.4-18.72-18.72-18.72s-18.72,8.4-18.72,18.72h-3c0-11.98,9.74-21.72,21.72-21.72s21.72,9.74,21.72,21.72Z"/>
  <path class="cls-1" d="M45.65,64.7c-9.58,0-17.37-7.79-17.37-17.36h3c0,7.92,6.44,14.36,14.37,14.36s14.37-6.44,14.37-14.36h3c0,9.57-7.79,17.36-17.37,17.36Z"/>
  <path class="cls-1" d="M63.01,47.34h-3c0-5.52-4.49-10.01-10.01-10.01s-10.01,4.49-10.01,10.01h-3c0-7.17,5.84-13.01,13.01-13.01s13.01,5.84,13.01,13.01Z"/>
  <path class="cls-1" d="M46.52,56.76c-5.25,0-9.53-4.27-9.53-9.53h3c0,3.6,2.93,6.53,6.53,6.53s6.53-2.93,6.53-6.53h3c0,5.25-4.27,9.53-9.53,9.53Z"/>
  <path class="cls-1" d="M56.05,47.4h-3c0-1.61-1.31-2.92-2.92-2.92s-2.92,1.31-2.92,2.92h-3c0-3.26,2.65-5.92,5.92-5.92s5.92,2.65,5.92,5.92Z"/>
</svg>