<?xml version="1.0" encoding="UTF-8"?>
<svg id="Layer_3" data-name="Layer 3" xmlns="http://www.w3.org/2000/svg" viewBox="0 0 100 100">
  <defs>
    <style>
      .cls-1 {
        fill: #004a52;
      }

      .cls-2 {
        fill: #c49e29;
      }
    </style>
  </defs>
  <path class="cls-1" d="M28.19,45.18c-1.6,0-3.2-.38-4.67-1.18,0,0,0,0,0,0l-.39-.21c-2.47-1.34-4.28-3.67-4.95-6.4-.67-2.71-.16-5.59,1.39-7.9,2.82-4.18,6.41-7.69,10.69-10.42,9.76-6.23,22.06-7.48,32.89-3.33,6.96,2.66,10.26,5.54,9.81,8.55-.44,3-4.41,4.78-11.78,5.31-6.33.45-12.53,2.51-17.91,5.95-2.79,1.78-5.33,3.91-7.57,6.33-2,2.17-4.75,3.32-7.51,3.32ZM24.94,41.36c2.81,1.52,6.32.88,8.56-1.54,2.41-2.61,5.15-4.9,8.16-6.82,5.81-3.71,12.48-5.92,19.31-6.41,7.14-.51,8.94-2.16,9.03-2.76.09-.6-1.16-2.72-7.92-5.31-9.95-3.81-21.24-2.66-30.21,3.06-3.93,2.51-7.23,5.73-9.82,9.57-1.1,1.63-1.44,3.59-.97,5.51.47,1.91,1.74,3.55,3.47,4.48l.39.21Z"/>
  <path class="cls-1" d="M49.96,86.69c-4.43,0-8.88-.8-13.11-2.41-6.96-2.66-10.26-5.54-9.81-8.55.44-3,4.41-4.78,11.78-5.31,6.33-.45,12.53-2.51,17.91-5.95,2.79-1.78,5.33-3.91,7.57-6.33,3.17-3.43,8.17-4.31,12.19-2.14,0,0,0,0,0,0l.39.21c2.47,1.34,4.28,3.67,4.95,6.4.67,2.71.16,5.59-1.39,7.9-2.82,4.18-6.41,7.69-10.69,10.42-5.95,3.8-12.85,5.75-19.78,5.75ZM71.81,57.82c-1.95,0-3.89.82-5.31,2.36-2.41,2.61-5.15,4.9-8.16,6.82-5.81,3.71-12.48,5.92-19.31,6.41-7.14.51-8.94,2.16-9.03,2.76-.09.6,1.16,2.72,7.92,5.31,9.95,3.81,21.24,2.66,30.21-3.06,3.93-2.51,7.23-5.73,9.82-9.57,1.1-1.63,1.44-3.59.97-5.51-.47-1.91-1.74-3.55-3.47-4.48l-.39-.21c-1.02-.55-2.14-.82-3.25-.82Z"/>
  <path class="cls-2" d="M50,59.89c-5.46,0-9.89-4.44-9.89-9.89s4.44-9.89,9.89-9.89,9.89,4.44,9.89,9.89-4.44,9.89-9.89,9.89ZM50,43.11c-3.8,0-6.89,3.09-6.89,6.89s3.09,6.89,6.89,6.89,6.89-3.09,6.89-6.89-3.09-6.89-6.89-6.89Z"/>
</svg>