<?xml version="1.0" encoding="UTF-8"?>
<svg id="Layer_3" data-name="Layer 3" xmlns="http://www.w3.org/2000/svg" viewBox="0 0 100 100">
  <defs>
    <style>
      .cls-1 {
        fill: #004a52;
      }

      .cls-2 {
        fill: #c49e29;
      }
    </style>
  </defs>
  <path class="cls-1" d="M27.43,80.26c-1,0-2-.27-2.9-.82-1.74-1.05-2.75-2.89-2.71-4.92l.09-4.53c-5.1-4.56-8-11.03-8-17.88v-11.46c0-13.23,10.76-23.99,23.99-23.99h24.19c13.23,0,23.99,10.76,23.99,23.99v11.46c0,13.23-10.76,23.99-23.99,23.99h-24.19c-.44,0-.91-.02-1.42-.05l-6.34,3.49c-.85.47-1.78.7-2.71.7ZM37.91,19.67c-11.58,0-20.99,9.42-20.99,20.99v11.46c0,6.2,2.73,12.06,7.48,16.06.35.29.54.72.53,1.18l-.11,5.23c-.02.94.45,1.8,1.26,2.29.81.49,1.78.51,2.61.05l6.73-3.71c.26-.14.55-.2.84-.18.62.05,1.15.07,1.64.07h24.19c11.58,0,20.99-9.42,20.99-20.99v-11.46c0-11.58-9.42-20.99-20.99-20.99h-24.19Z"/>
  <g>
    <path class="cls-2" d="M50,44.24c-4.45,0-8.07-3.62-8.07-8.08s3.62-8.08,8.07-8.08,8.08,3.62,8.08,8.08-3.62,8.08-8.08,8.08ZM50,31.09c-2.8,0-5.07,2.28-5.07,5.08s2.28,5.08,5.07,5.08,5.08-2.28,5.08-5.08-2.28-5.08-5.08-5.08Z"/>
    <path class="cls-1" d="M47.63,65.13c-6.02,0-11.47-2.67-12.34-6.54-1.01-4.54,4.5-9.36,12.81-11.22,8.32-1.86,15.36.16,16.37,4.7h0c1.07,4.8-5.01,10.92-12.51,12.59-1.44.32-2.91.47-4.34.47ZM53.9,49.71c-1.58,0-3.32.18-5.14.59-6.67,1.49-11.07,5.26-10.54,7.64.56,2.52,6.45,5.29,13.09,3.8,6.65-1.49,10.79-6.49,10.23-9.01h0c-.39-1.73-3.44-3.01-7.65-3.01Z"/>
  </g>
</svg>