<?xml version="1.0" encoding="UTF-8"?>
<svg id="Layer_3" data-name="Layer 3" xmlns="http://www.w3.org/2000/svg" viewBox="0 0 100 100">
  <defs>
    <style>
      .cls-1 {
        fill: #004a52;
      }

      .cls-2 {
        fill: #c49e29;
      }
    </style>
  </defs>
  <path class="cls-1" d="M49.58,89.29c-5.55,0-10.97-1.24-15.57-3.58-5.38-2.75-8.83-6.73-9.21-10.64-.76-7.85,10.4-15.15,25.42-16.61,6.98-.68,13.7.04,18.92,2.02,5.57,2.11,8.84,5.44,9.23,9.38h0c.75,7.7-10.08,17.79-25.16,19.26-1.21.12-2.42.18-3.62.18ZM55.33,61.21c-1.58,0-3.19.08-4.82.24-12.9,1.25-23.31,7.36-22.72,13.33.28,2.85,3.18,6.01,7.58,8.26,5.02,2.56,11.41,3.69,17.54,3.09,13.8-1.34,23-10.48,22.47-15.98h0c-.26-2.7-2.93-5.21-7.31-6.87-3.6-1.36-8.01-2.07-12.74-2.07Z"/>
  <path class="cls-1" d="M51.58,55.23c-8.28,0-15.01-6.73-15.01-15.01s6.73-15.01,15.01-15.01,15.01,6.74,15.01,15.01-6.74,15.01-15.01,15.01ZM51.58,28.2c-6.62,0-12.01,5.39-12.01,12.01s5.39,12.01,12.01,12.01,12.01-5.39,12.01-12.01-5.39-12.01-12.01-12.01Z"/>
  <g>
    <path class="cls-2" d="M70.96,36.38c-.54,0-1.08-.15-1.57-.44-.94-.57-1.49-1.56-1.47-2.66l.03-1.28c-1.91-1.86-2.99-4.41-2.99-7.09v-4.29c0-5.47,4.45-9.92,9.92-9.92h9.05c5.47,0,9.92,4.45,9.92,9.92v4.29c0,5.47-4.45,9.92-9.92,9.92h-9.05c-.1,0-.21,0-.31,0l-2.14,1.18c-.46.25-.96.38-1.47.38ZM74.88,13.71c-3.81,0-6.92,3.1-6.92,6.92v4.29c0,2.04.9,3.97,2.47,5.29.35.29.54.72.53,1.18l-.04,1.96,2.57-1.35c.26-.14.55-.21.84-.18.18.01.36.02.54.02h9.05c3.81,0,6.92-3.1,6.92-6.92v-4.29c0-3.81-3.1-6.92-6.92-6.92h-9.05Z"/>
    <path class="cls-2" d="M29.04,61.29c-.5,0-1-.13-1.46-.38l-2.14-1.18c-.1,0-.21,0-.31,0h-9.05c-5.47,0-9.92-4.45-9.92-9.92v-4.29c0-5.47,4.45-9.92,9.92-9.92h9.05c5.47,0,9.92,4.45,9.92,9.92v4.29c0,2.68-1.08,5.23-2.99,7.09l.03,1.28c.02,1.1-.53,2.09-1.47,2.66-.49.29-1.03.44-1.57.44ZM25.78,56.71c.25,0,.5.06.72.19l2.52,1.39.02-1.99c0-.45.19-.89.53-1.18,1.57-1.32,2.47-3.25,2.47-5.29v-4.29c0-3.81-3.1-6.92-6.92-6.92h-9.05c-3.81,0-6.92,3.1-6.92,6.92v4.29c0,3.81,3.1,6.92,6.92,6.92h9.05c.18,0,.36-.01.54-.02.04,0,.08,0,.11,0Z"/>
  </g>
</svg>