<?xml version="1.0" encoding="UTF-8"?>
<svg id="Layer_3" data-name="Layer 3" xmlns="http://www.w3.org/2000/svg" viewBox="0 0 100 100">
  <defs>
    <style>
      .cls-1 {
        fill: #004a52;
      }

      .cls-2 {
        fill: #c49e29;
      }
    </style>
  </defs>
  <path class="cls-1" d="M50,63.47c-10.06,0-18.24-8.18-18.24-18.24,0-6.44,7.09-17.82,13.04-26.24,1.21-1.71,3.1-2.69,5.19-2.69s3.99.98,5.19,2.69c5.95,8.41,13.04,19.79,13.04,26.24,0,10.06-8.18,18.24-18.24,18.24ZM50,19.3c-1.1,0-2.11.52-2.75,1.42-7.94,11.23-12.49,20.16-12.49,24.5,0,8.4,6.84,15.24,15.24,15.24s15.24-6.84,15.24-15.24c0-4.35-4.55-13.28-12.49-24.5-.64-.9-1.64-1.42-2.75-1.42Z"/>
  <path class="cls-1" d="M50,74.48v-3c14.05,0,21.3-3.36,21.3-4.8,0-.34-.79-1.49-4.42-2.66l.92-2.85c4.31,1.39,6.49,3.25,6.49,5.52,0,5.36-12.59,7.8-24.3,7.8Z"/>
  <path class="cls-1" d="M50,83.7v-3c20.26,0,34.38-6.37,34.38-12.08,0-2.56-2.8-5.28-7.69-7.44l1.21-2.74c6.2,2.75,9.48,6.27,9.48,10.19,0,8.46-16.42,15.08-37.38,15.08Z"/>
  <path class="cls-1" d="M50,74.48c-11.7,0-24.3-2.44-24.3-7.8,0-2.27,2.19-4.12,6.49-5.52l.92,2.85c-3.62,1.17-4.42,2.32-4.42,2.66,0,1.44,7.25,4.8,21.3,4.8v3Z"/>
  <path class="cls-1" d="M50,83.7c-20.96,0-37.38-6.62-37.38-15.08,0-3.92,3.28-7.44,9.48-10.19l1.21,2.74c-4.89,2.17-7.69,4.88-7.69,7.44,0,5.71,14.12,12.08,34.38,12.08v3Z"/>
  <path class="cls-2" d="M48.17,54.58c-4.6,0-8.35-3.74-8.35-8.35h3c0,2.95,2.4,5.35,5.35,5.35v3Z"/>
</svg>