<?xml version="1.0" encoding="UTF-8"?>
<svg id="Layer_3" data-name="Layer 3" xmlns="http://www.w3.org/2000/svg" viewBox="0 0 100 100">
  <defs>
    <style>
      .cls-1 {
        fill: #004a52;
      }

      .cls-2 {
        fill: #c49e29;
      }
    </style>
  </defs>
  <path class="cls-1" d="M73.13,87.66H26.87c-3.81,0-6.91-3.1-6.91-6.91V19.25c0-3.81,3.1-6.91,6.91-6.91h34.93c.4,0,.78.16,1.06.44l16.73,16.73c.28.28.44.66.44,1.06v50.18c0,3.81-3.1,6.91-6.91,6.91ZM26.87,15.34c-2.16,0-3.91,1.76-3.91,3.91v61.5c0,2.16,1.76,3.91,3.91,3.91h46.25c2.16,0,3.91-1.76,3.91-3.91V31.19l-15.85-15.85H26.87Z"/>
  <path class="cls-1" d="M78.54,32.07h-13.23c-2.76,0-5-2.24-5-5v-13.23h3v13.23c0,1.1.9,2,2,2h13.23v3Z"/>
  <path class="cls-2" d="M46.96,69.19c-1.46,0-2.92-.56-4.04-1.67l-7.78-7.78c-2.23-2.23-2.23-5.85,0-8.07,2.23-2.23,5.85-2.22,8.07,0l3.75,3.75,9.83-9.83h0c2.23-2.22,5.85-2.22,8.07,0,2.23,2.23,2.23,5.85,0,8.07l-13.86,13.86c-1.11,1.11-2.57,1.67-4.04,1.67ZM39.18,52.99c-.69,0-1.39.26-1.92.79-1.06,1.06-1.06,2.77,0,3.83l7.78,7.78c1.06,1.06,2.77,1.06,3.83,0l13.86-13.86c1.06-1.06,1.06-2.77,0-3.83s-2.77-1.05-3.83,0l-10.89,10.89c-.59.59-1.54.59-2.12,0l-4.81-4.81c-.53-.53-1.22-.79-1.91-.79Z"/>
</svg>