<?xml version="1.0" encoding="UTF-8"?>
<svg id="Layer_3" data-name="Layer 3" xmlns="http://www.w3.org/2000/svg" viewBox="0 0 100 100">
  <defs>
    <style>
      .cls-1 {
        fill: #004a52;
      }

      .cls-2 {
        fill: #c49e29;
      }
    </style>
  </defs>
  <path class="cls-2" d="M50,62.69c-5.31,0-9.63-4.32-9.63-9.63,0-4.86,7.58-14.76,8.45-15.87.57-.73,1.8-.73,2.37,0,.86,1.11,8.45,11,8.45,15.87,0,5.31-4.32,9.63-9.63,9.63ZM50,40.61c-2.94,4.03-6.63,9.92-6.63,12.45,0,3.66,2.97,6.63,6.63,6.63s6.63-2.97,6.63-6.63c0-2.54-3.69-8.42-6.63-12.45Z"/>
  <g>
    <rect class="cls-1" x="27.09" y="14.79" width="3" height="70.42"/>
    <rect class="cls-1" x="69.91" y="14.79" width="3" height="70.42"/>
  </g>
</svg>