<?xml version="1.0" encoding="UTF-8"?>
<svg id="Layer_3" data-name="Layer 3" xmlns="http://www.w3.org/2000/svg" viewBox="0 0 100 100">
  <defs>
    <style>
      .cls-1 {
        fill: #004a52;
      }

      .cls-2 {
        fill: #c49e29;
      }
    </style>
  </defs>
  <path class="cls-1" d="M36.09,71.35c-11.77,0-21.35-9.58-21.35-21.35s9.58-21.35,21.35-21.35,21.35,9.58,21.35,21.35h-3c0-10.12-8.23-18.35-18.35-18.35s-18.35,8.23-18.35,18.35,8.23,18.35,18.35,18.35c4.9,0,9.51-1.91,12.98-5.38l2.12,2.12c-4.03,4.03-9.39,6.25-15.1,6.25Z"/>
  <path class="cls-2" d="M63.91,71.35c-11.77,0-21.35-9.58-21.35-21.35h3c0,10.12,8.23,18.35,18.35,18.35s18.35-8.23,18.35-18.35-8.23-18.35-18.35-18.35c-4.84,0-9.41,1.87-12.86,5.26l-2.1-2.14c4.02-3.95,9.33-6.12,14.96-6.12,11.77,0,21.35,9.58,21.35,21.35s-9.58,21.35-21.35,21.35Z"/>
  <path class="cls-1" d="M36.09,71.35c-11.77,0-21.35-9.58-21.35-21.35s9.58-21.35,21.35-21.35,21.35,9.58,21.35,21.35h-3c0-10.12-8.23-18.35-18.35-18.35s-18.35,8.23-18.35,18.35,8.23,18.35,18.35,18.35v3Z"/>
</svg>