<?xml version="1.0" encoding="UTF-8"?>
<svg id="Layer_3" data-name="Layer 3" xmlns="http://www.w3.org/2000/svg" viewBox="0 0 100 100">
  <defs>
    <style>
      .cls-1 {
        fill: #004a52;
      }

      .cls-2 {
        fill: #c49e29;
      }
    </style>
  </defs>
  <path class="cls-1" d="M50,86.86c-3.45,0-6.4-1.98-7.71-5.18l-5-12.25c-1.64-2.67-4.06-4.75-7.03-6.03-8.98-3.87-14.78-12.68-14.78-22.45v-3.37c0-13.48,10.96-24.44,24.44-24.44h20.16c13.48,0,24.44,10.96,24.44,24.44v3.37c0,9.77-5.8,18.58-14.78,22.45-2.97,1.28-5.4,3.36-7.03,6.03l-5,12.25c-1.3,3.19-4.26,5.18-7.71,5.18ZM39.92,16.14c-11.82,0-21.44,9.62-21.44,21.44v3.37c0,8.57,5.09,16.3,12.96,19.69,3.58,1.54,6.51,4.08,8.47,7.33.04.07.08.14.1.21l5.05,12.37c1,2.44,3.2,3.31,4.93,3.31s3.93-.87,4.93-3.31l5.05-12.37c.03-.07.06-.14.1-.21,1.96-3.25,4.89-5.79,8.47-7.33,7.88-3.39,12.96-11.12,12.96-19.69v-3.37c0-11.82-9.62-21.44-21.44-21.44h-20.16Z"/>
  <path class="cls-2" d="M57.36,49.47h-14.71c-5.83,0-10.57-4.74-10.57-10.57s4.74-10.57,10.57-10.57h14.71c5.83,0,10.57,4.74,10.57,10.57s-4.74,10.57-10.57,10.57ZM42.64,31.33c-4.17,0-7.57,3.4-7.57,7.57s3.4,7.57,7.57,7.57h14.71c4.17,0,7.57-3.4,7.57-7.57s-3.4-7.57-7.57-7.57h-14.71Z"/>
</svg>