<?xml version="1.0" encoding="UTF-8"?>
<svg id="Layer_3" data-name="Layer 3" xmlns="http://www.w3.org/2000/svg" viewBox="0 0 100 100">
  <defs>
    <style>
      .cls-1 {
        fill: #004a52;
      }

      .cls-2 {
        fill: #c49e29;
      }
    </style>
  </defs>
  <path class="cls-2" d="M58.27,43.23c-.37,0-.73-.09-1.06-.28l-7.2-4.16-7.2,4.16c-.73.42-1.63.37-2.31-.12-.68-.49-1-1.34-.83-2.16l1.73-8.14-6.18-5.56c-.62-.56-.86-1.44-.6-2.24.26-.8.97-1.37,1.8-1.46l8.27-.87,3.38-7.6c.34-.77,1.1-1.26,1.94-1.26s1.6.5,1.94,1.26l3.38,7.6,8.27.87c.83.09,1.54.66,1.8,1.46.26.8.02,1.68-.6,2.24l-6.18,5.56,1.73,8.14c.17.82-.15,1.67-.83,2.16-.37.27-.81.41-1.25.41ZM50,35.55c.26,0,.52.07.75.2l6.25,3.61-1.5-7.06c-.11-.52.07-1.07.46-1.43l5.37-4.83-7.18-.75c-.53-.06-1-.39-1.21-.88l-2.93-6.6-2.93,6.6c-.22.49-.68.83-1.21.88l-7.18.75,5.37,4.83c.4.36.58.9.46,1.43l-1.5,7.06,6.25-3.61c.23-.13.49-.2.75-.2Z"/>
  <path class="cls-1" d="M23.35,77.51c-.27,0-.54,0-.81,0h-3.13v-3h3.15c33.15.48,48.48-29.86,51.78-37.44l-11.17-1.75.46-2.96,13.04,2.05c.44.07.83.33,1.06.72.23.38.27.85.12,1.27-.15.41-15.28,41.12-54.52,41.12Z"/>
  <path class="cls-1" d="M76.63,77.51c-39.23,0-54.35-40.71-54.5-41.12-.15-.42-.11-.89.12-1.27.23-.39.62-.65,1.06-.72l13.04-2.05.46,2.96-11.17,1.75c3.28,7.52,18.39,37.44,51,37.44.25,0,.5,0,.76,0h3.17v3h-3.15c-.27,0-.54,0-.81,0Z"/>
  <rect class="cls-1" x="19.41" y="83.46" width="60.2" height="3"/>
</svg>