<?xml version="1.0" encoding="UTF-8"?>
<svg id="Layer_3" data-name="Layer 3" xmlns="http://www.w3.org/2000/svg" viewBox="0 0 100 100">
  <defs>
    <style>
      .cls-1 {
        fill: #004a52;
      }

      .cls-2 {
        fill: #c49e29;
      }
    </style>
  </defs>
  <rect class="cls-1" x="37.1" y="65.57" width="3" height="9.26"/>
  <rect class="cls-1" x="67.94" y="37.1" width="13.58" height="3"/>
  <path class="cls-1" d="M56.95,86.32h-13.89c-3.28,0-5.95-2.67-5.95-5.95v-5.94h3v5.94c0,1.63,1.32,2.95,2.95,2.95h13.89c1.63,0,2.95-1.32,2.95-2.95v-18.97c0-.83.67-1.5,1.5-1.5h18.97c1.63,0,2.95-1.32,2.95-2.95v-13.89c0-.94-.46-1.83-1.22-2.39l1.77-2.42c1.53,1.12,2.45,2.92,2.45,4.81v13.89c0,3.28-2.67,5.95-5.95,5.95h-17.47v17.47c0,3.28-2.67,5.95-5.95,5.95Z"/>
  <path class="cls-2" d="M25.39,78.78c-4.41,0-7.7-1.3-9.56-3.86-2.46-3.37-2.11-8.37,1-14.47l2.67,1.37c-2.53,4.95-2.97,8.97-1.25,11.33,2.09,2.87,7.45,3.42,14.71,1.51,7.83-2.06,16.9-6.67,25.56-12.99,8.66-6.31,15.82-13.55,20.17-20.37,4.03-6.33,5.15-11.6,3.06-14.47-2.66-3.65-10.54-3.49-20.57.42l-1.09-2.79c11.7-4.56,20.48-4.34,24.09.6,2.9,3.98,1.85,10.31-2.95,17.85-4.55,7.13-11.98,14.65-20.93,21.18-8.95,6.53-18.38,11.31-26.56,13.46-3.09.81-5.89,1.22-8.34,1.22Z"/>
  <path class="cls-1" d="M40.1,68.72h-3v-5.82h-17.47c-3.28,0-5.95-2.67-5.95-5.95v-13.89c0-3.28,2.67-5.95,5.95-5.95h17.47v-17.47c0-3.28,2.67-5.95,5.95-5.95h13.89c3.28,0,5.95,2.67,5.95,5.95v17.47h9.36v3h-10.86c-.83,0-1.5-.67-1.5-1.5v-18.97c0-1.63-1.32-2.95-2.95-2.95h-13.89c-1.63,0-2.95,1.32-2.95,2.95v18.97c0,.83-.67,1.5-1.5,1.5h-18.97c-1.63,0-2.95,1.32-2.95,2.95v13.89c0,1.63,1.32,2.95,2.95,2.95h18.97c.83,0,1.5.67,1.5,1.5v7.32Z"/>
</svg>