<?xml version="1.0" encoding="UTF-8"?>
<svg id="Layer_3" data-name="Layer 3" xmlns="http://www.w3.org/2000/svg" viewBox="0 0 100 100">
  <defs>
    <style>
      .cls-1 {
        fill: #004a52;
      }

      .cls-2 {
        fill: #c49e29;
      }
    </style>
  </defs>
  <path class="cls-1" d="M50,66.55c-7.13,0-14.5-2.51-21.92-7.46-2.16-1.44-4.69-2.2-7.32-2.2h-4.77c-.83,0-1.5-.67-1.5-1.5v-10.78c0-.83.67-1.5,1.5-1.5h4.77c2.63,0,5.17-.76,7.32-2.2,7.42-4.95,14.8-7.46,21.92-7.46s14.5,2.51,21.92,7.46c2.16,1.44,4.69,2.2,7.32,2.2h4.77c.83,0,1.5.67,1.5,1.5v10.78c0,.83-.67,1.5-1.5,1.5h-4.77c-2.63,0-5.17.76-7.32,2.2-7.42,4.95-14.8,7.46-21.92,7.46ZM17.48,53.89h3.27c3.23,0,6.34.94,8.99,2.71,6.92,4.62,13.73,6.96,20.26,6.96s13.34-2.34,20.26-6.96c2.65-1.77,5.76-2.71,8.99-2.71h3.27v-7.78h-3.27c-3.23,0-6.34-.94-8.99-2.71-6.92-4.62-13.73-6.96-20.26-6.96s-13.34,2.34-20.26,6.96c-2.65,1.77-5.76,2.71-8.99,2.71h-3.27v7.78Z"/>
  <g>
    <path class="cls-2" d="M25.21,30.38c-4.94,0-7.89-1.45-8.11-1.56l1.35-2.68c.33.16,8.25,3.94,20.43-2.51,13.03-6.89,21.12-7.52,27.94-2.17l-1.85,2.36c-5.73-4.49-12.88-3.78-24.69,2.46-6.02,3.18-11.17,4.09-15.08,4.09Z"/>
    <path class="cls-2" d="M81.05,32.21c-1.98-2.47-4.95-3.69-13.01-1.58-8.64,2.26-13.3-1.56-13.49-1.72l1.92-2.3c.15.12,3.76,2.96,10.81,1.12,8.24-2.15,12.91-1.4,16.12,2.61l-2.34,1.87Z"/>
  </g>
</svg>