<?xml version="1.0" encoding="UTF-8"?>
<svg id="Layer_3" data-name="Layer 3" xmlns="http://www.w3.org/2000/svg" viewBox="0 0 100 100">
  <defs>
    <style>
      .cls-1 {
        fill: #004a52;
      }
    </style>
  </defs>
  <path class="cls-1" d="M88.15,48.44h-4.85c-5.47,0-10.4-3.54-12.87-9.23l-5.18-11.93c-3.02-6.97-8.73-11.13-15.25-11.13s-12.22,4.16-15.25,11.13l-5.18,11.93c-2.47,5.69-7.4,9.23-12.87,9.23h-4.85v-3h4.85c4.26,0,8.14-2.84,10.12-7.42l5.18-11.93c3.46-7.98,10.36-12.94,18-12.94s14.54,4.96,18,12.94l5.18,11.93c1.99,4.58,5.86,7.42,10.12,7.42h4.85v3Z"/>
  <path class="cls-1" d="M50,86.86c-7.64,0-14.54-4.96-18-12.94l-5.18-11.93c-1.99-4.58-5.86-7.42-10.12-7.42h-4.85v-3h4.85c5.47,0,10.4,3.54,12.87,9.23l5.18,11.93c3.02,6.97,8.73,11.13,15.25,11.13s12.22-4.16,15.25-11.13l5.18-11.93c2.47-5.69,7.4-9.23,12.87-9.23h4.85v3h-4.85c-4.26,0-8.14,2.84-10.12,7.42l-5.18,11.93c-3.46,7.98-10.36,12.94-18,12.94Z"/>
</svg>