<?xml version="1.0" encoding="UTF-8"?>
<svg id="Layer_3" data-name="Layer 3" xmlns="http://www.w3.org/2000/svg" viewBox="0 0 100 100">
  <defs>
    <style>
      .cls-1 {
        fill: #004a52;
      }

      .cls-2 {
        fill: #c49e29;
      }
    </style>
  </defs>
  <path class="cls-1" d="M48.18,86.45c-4.27,0-8.5-1.36-12.06-4.03l-1.02-.76c-.39-.29-.81-.52-1.27-.69l-5.93-2.18c-4.95-1.82-8.47-6.38-8.97-11.63-.31-3.24-1.5-6.21-3.45-8.7-3.38-4.31-3.46-10.4-.19-14.8,2.15-2.89,3.33-6.46,3.33-10.06,0-6.06,4.33-11.27,10.29-12.37l8.58-1.59c3.72-.69,7.38-1.78,10.88-3.24h0c5.65-2.36,12.19-.87,16.26,3.71l.84.94c.68.76,1.56,1.29,2.56,1.53l2.44.59c7.59,1.83,12.88,8.55,12.88,16.35,0,.45.06.9.18,1.33l3.25,11.71c1.06,3.82-.79,7.78-4.41,9.41-1.18.53-2.1,1.49-2.58,2.7l-1.81,4.54c-2.47,6.2-7.83,10.76-14.35,12.2-.37.08-.73.2-1.07.37l-5.75,2.73c-2.76,1.31-5.71,1.95-8.64,1.95ZM49.52,19.15h0c-3.69,1.54-7.55,2.69-11.48,3.42l-8.58,1.59c-4.54.84-7.83,4.81-7.83,9.42,0,4.24-1.39,8.44-3.92,11.85-2.46,3.32-2.41,7.9.14,11.16,2.3,2.94,3.71,6.46,4.06,10.18.4,4.2,3.15,7.77,7.03,9.19l5.93,2.18c.73.27,1.41.64,2.03,1.11l1.02.76c5.1,3.83,11.85,4.5,17.61,1.77l5.75-2.73c.55-.26,1.12-.46,1.71-.59,5.55-1.22,10.11-5.1,12.21-10.38l1.81-4.54c.77-1.93,2.24-3.47,4.14-4.33,2.26-1.02,3.41-3.49,2.75-5.87l-3.25-11.71c-.19-.69-.29-1.41-.29-2.13,0-6.41-4.35-11.94-10.59-13.44l-2.44-.59c-1.59-.38-3.01-1.23-4.1-2.46l-.84-.94c-3.22-3.62-8.39-4.8-12.86-2.93Z"/>
  <path class="cls-1" d="M48.84,73.95c-2.82,0-5.62-.9-7.97-2.66l-.64-.48c-.2-.15-.43-.27-.66-.36l-3.76-1.38c-3.33-1.22-5.7-4.3-6.04-7.83-.19-1.94-.9-3.73-2.07-5.23-2.29-2.93-2.35-7.05-.13-10.04,1.29-1.74,2-3.88,2-6.04,0-4.1,2.93-7.63,6.96-8.38l5.43-1.01c2.32-.43,4.6-1.11,6.78-2.02h0c3.8-1.59,8.19-.59,10.92,2.49l.53.6c.35.4.82.68,1.34.8l1.55.37c5.05,1.22,8.58,5.7,8.58,10.89,0,.24.03.47.09.7l2.06,7.42c.74,2.68-.56,5.46-3.1,6.61-.62.28-1.1.78-1.35,1.41l-1.14,2.88c-1.63,4.1-5.17,7.11-9.48,8.06-.19.04-.38.11-.56.19l-3.64,1.73c-1.82.87-3.77,1.29-5.71,1.29ZM49.9,31.28c-2.37.99-4.86,1.73-7.39,2.2l-5.43,1.01c-2.61.49-4.51,2.77-4.51,5.43,0,2.8-.92,5.58-2.59,7.83-1.41,1.9-1.38,4.53.08,6.4,1.52,1.95,2.45,4.28,2.69,6.74.23,2.45,1.84,4.53,4.09,5.36l3.76,1.38c.51.19.99.45,1.43.78l.64.48c3.07,2.3,7.12,2.71,10.59,1.06l3.64-1.73c.38-.18.79-.32,1.2-.41,3.33-.73,6.08-3.07,7.34-6.24l1.14-2.88c.54-1.36,1.57-2.44,2.9-3.04,1.18-.53,1.78-1.82,1.44-3.07l-2.06-7.42c-.14-.49-.2-.99-.2-1.5,0-3.81-2.58-7.09-6.28-7.98l-1.55-.37c-1.12-.27-2.11-.87-2.88-1.73l-.53-.6c-1.88-2.12-4.91-2.81-7.52-1.72h0Z"/>
  <path class="cls-2" d="M49.44,62.54c-1.5,0-2.98-.48-4.23-1.41l-.3-.23s-.07-.05-.11-.06l-1.77-.65c-1.86-.68-3.18-2.39-3.36-4.36-.07-.77-.35-1.47-.81-2.05-1.3-1.66-1.33-4-.07-5.7.51-.68.79-1.53.79-2.38,0-2.32,1.65-4.31,3.93-4.73l2.56-.48c1.04-.19,2.06-.5,3.04-.91,2.1-.88,4.53-.32,6.05,1.38l.25.28c.06.07.14.11.23.14l.73.18c2.74.66,4.65,3.09,4.65,5.91,0,.04,0,.08.02.12l.97,3.5c.46,1.65-.34,3.35-1.9,4.05-.1.05-.18.13-.23.24l-.54,1.36c-.87,2.18-2.75,3.78-5.04,4.28l-1.81.85c-.97.46-2,.69-3.03.69ZM51.15,42.17c-.3,0-.61.06-.9.18h0c-1.17.49-2.4.85-3.64,1.09l-2.56.48c-.86.16-1.48.91-1.48,1.78,0,1.49-.49,2.97-1.38,4.17-.45.61-.44,1.46.03,2.06.81,1.04,1.31,2.28,1.43,3.59.08.85.64,1.57,1.42,1.86l1.77.65c.31.12.61.28.88.48l.3.23c1.21.91,2.81,1.07,4.18.42l1.72-.82c.24-.11.49-.2.74-.25,1.31-.29,2.4-1.21,2.89-2.46l.54-1.36c.33-.83.96-1.49,1.78-1.86.2-.09.3-.3.24-.51l-.97-3.5c-.08-.3-.12-.61-.12-.92,0-1.43-.97-2.66-2.36-2.99l-.73-.18c-.69-.17-1.3-.53-1.76-1.06l-.25-.28c-.45-.51-1.1-.79-1.75-.79Z"/>
</svg>