<?xml version="1.0" encoding="UTF-8"?>
<svg id="Layer_3" data-name="Layer 3" xmlns="http://www.w3.org/2000/svg" viewBox="0 0 100 100">
  <defs>
    <style>
      .cls-1 {
        fill: #004a52;
      }

      .cls-2 {
        fill: #c49e29;
      }
    </style>
  </defs>
  <path class="cls-1" d="M50,80.43c-.93,0-1.85-.24-2.68-.71-8.66-4.94-18.17-7.54-28.25-7.74-3.77-.07-6.73-3.06-6.73-6.81v-32.53c0-1.89.75-3.64,2.12-4.94,1.37-1.3,3.23-1.97,5.12-1.88.38.02.78.05,1.17.07l-.22,2.99c-.37-.03-.74-.05-1.11-.07-1.08-.05-2.12.32-2.9,1.06-.77.73-1.19,1.71-1.19,2.76v32.53c0,2.1,1.66,3.77,3.79,3.81,10.59.21,20.58,2.94,29.68,8.13.74.42,1.65.42,2.39,0,9.11-5.19,19.09-7.92,29.68-8.13,2.12-.04,3.79-1.71,3.79-3.81v-32.53c0-1.05-.42-2.04-1.19-2.76-.78-.74-1.8-1.12-2.9-1.06-.37.02-.75.04-1.12.07l-.22-2.99c.39-.03.79-.06,1.18-.07,1.89-.11,3.75.59,5.12,1.88,1.37,1.3,2.12,3.05,2.12,4.94v32.53c0,3.75-2.96,6.74-6.73,6.81-10.08.2-19.59,2.8-28.25,7.74-.83.47-1.75.71-2.68.71Z"/>
  <path class="cls-1" d="M50,72.52c-.27,0-.55-.07-.79-.22-7.42-4.58-15.6-6.98-24.32-7.15-3.16-.06-5.74-2.67-5.74-5.82V25.39c0-1.61.64-3.1,1.81-4.21,1.16-1.1,2.76-1.68,4.36-1.61,8.2.43,16.5,2.8,24.68,7.05,8.18-4.25,16.48-6.63,24.68-7.05h0c1.62-.08,3.2.5,4.36,1.61,1.17,1.11,1.81,2.6,1.81,4.21v33.94c0,3.15-2.57,5.76-5.74,5.82-8.72.17-16.9,2.57-24.32,7.15-.24.15-.51.22-.79.22ZM25.01,22.57c-.75,0-1.44.28-1.98.79-.56.54-.87,1.26-.87,2.03v33.94c0,1.55,1.23,2.79,2.8,2.82,8.96.17,17.38,2.56,25.05,7.12,7.67-4.55,16.1-6.95,25.05-7.12,1.57-.03,2.8-1.27,2.8-2.82V25.39c0-.78-.31-1.5-.87-2.03-.58-.55-1.34-.83-2.14-.79-7.99.42-16.11,2.8-24.13,7.08-.44.24-.97.24-1.41,0-8.02-4.28-16.14-6.66-24.13-7.08-.05,0-.11,0-.16,0Z"/>
  <g>
    <path class="cls-2" d="M50.71,42.89l-1.41-2.65c5.57-2.97,11.23-4.97,16.81-5.93l.51,2.96c-5.27.91-10.62,2.8-15.91,5.62Z"/>
    <path class="cls-2" d="M50,43.07c-.24,0-.49-.06-.71-.18-5.29-2.82-10.64-4.71-15.91-5.62l.51-2.96c5.35.92,10.77,2.79,16.12,5.57l1.54-.78,1.36,2.67-2.23,1.13c-.21.11-.45.16-.68.16Z"/>
  </g>
  <path class="cls-2" d="M60.94,57.82l-.82-2.88c2.57-.73,5.19-1.3,7.79-1.67l.43,2.97c-2.47.36-4.95.89-7.4,1.59Z"/>
  <path class="cls-2" d="M61.29,50.83l-.82-2.88c2.58-.74,5.2-1.3,7.79-1.67l.43,2.97c-2.46.35-4.95.89-7.4,1.59Z"/>
  <path class="cls-1" d="M38.71,50.83c-2.45-.7-4.94-1.23-7.4-1.59l.43-2.97c2.59.37,5.21.94,7.79,1.67l-.82,2.88Z"/>
</svg>