<?xml version="1.0" encoding="UTF-8"?>
<svg id="Layer_3" data-name="Layer 3" xmlns="http://www.w3.org/2000/svg" viewBox="0 0 100 100">
  <defs>
    <style>
      .cls-1 {
        fill: #004a52;
      }

      .cls-2 {
        fill: #c49e29;
      }
    </style>
  </defs>
  <g>
    <path class="cls-1" d="M78.52,66.46l-2.76-1.17c2.03-4.78,3.06-9.92,3.06-15.29,0-18.82-12.93-34.13-28.82-34.13-7.98,0-15.68,3.99-21.12,10.95l-2.36-1.85c6.02-7.69,14.58-12.1,23.48-12.1,17.54,0,31.82,16.66,31.82,37.13,0,5.77-1.11,11.31-3.29,16.46Z"/>
    <path class="cls-1" d="M50,87.13c-17.54,0-31.82-16.66-31.82-37.13,0-4.99.83-9.82,2.47-14.38.25-.71.54-1.4.83-2.08l2.76,1.17c-.27.63-.53,1.27-.77,1.92-1.52,4.23-2.29,8.72-2.29,13.36,0,18.82,12.93,34.13,28.82,34.13,7.99,0,15.69-3.99,21.13-10.94l2.36,1.85c-6.02,7.68-14.58,12.09-23.49,12.09Z"/>
  </g>
  <path class="cls-2" d="M49.97,37.7c-3.66,0-6.64-2.98-6.64-6.64s2.98-6.64,6.64-6.64,6.64,2.98,6.64,6.64-2.98,6.64-6.64,6.64ZM49.97,27.43c-2.01,0-3.64,1.63-3.64,3.64s1.63,3.64,3.64,3.64,3.64-1.63,3.64-3.64-1.63-3.64-3.64-3.64Z"/>
  <path class="cls-1" d="M48.03,54.05c-1.74,0-3.45-.29-5-.85-2.67-.97-4.45-2.63-4.88-4.54-.43-1.94.53-3.99,2.72-5.75,1.9-1.53,4.58-2.74,7.54-3.4,6.69-1.49,12.35.19,13.18,3.92h0c.89,3.99-3.89,8.86-10.02,10.23-1.17.26-2.37.39-3.55.39ZM53.03,41.97c-1.19,0-2.52.14-3.95.46-2.48.55-4.78,1.58-6.31,2.81-1.22.98-1.85,2.02-1.68,2.77.14.65,1.01,1.66,2.98,2.37,2.04.74,4.54.87,6.87.35,5.17-1.15,8.12-5,7.75-6.65-.24-1.08-2.4-2.1-5.65-2.1Z"/>
  <path class="cls-1" d="M56.25,75.58c-2.46,0-4.66-2.68-6.25-5.89-1.78,3.6-4.34,6.52-7.15,5.77-1.04-.28-2.84-1.35-3.26-5.4-.26-2.52.06-5.66.92-8.83,1.07-3.99,5.54-5.77,9.49-5.77s8.42,1.78,9.49,5.77h0c.85,3.18,1.18,6.31.92,8.83-.42,4.05-2.22,5.12-3.26,5.4-.3.08-.6.12-.9.12ZM50,64.26c.64,0,1.21.41,1.42,1.02,1.73,5.11,4.19,7.49,4.95,7.28.3-.08.86-.92,1.06-2.82.22-2.13-.08-4.96-.83-7.75h0c-.66-2.45-3.79-3.55-6.6-3.55s-5.94,1.1-6.6,3.55c-.75,2.79-1.05,5.61-.83,7.75.2,1.9.75,2.73,1.06,2.82.78.21,3.22-2.18,4.95-7.28.21-.61.78-1.02,1.42-1.02Z"/>
</svg>