<?xml version="1.0" encoding="UTF-8"?>
<svg id="Layer_3" data-name="Layer 3" xmlns="http://www.w3.org/2000/svg" viewBox="0 0 100 100">
  <defs>
    <style>
      .cls-1 {
        fill: #004a52;
      }

      .cls-2 {
        fill: #c49e29;
      }
    </style>
  </defs>
  <path class="cls-1" d="M50,84.42c-18.98,0-34.42-15.44-34.42-34.42S31.02,15.58,50,15.58s34.42,15.44,34.42,34.42-15.44,34.42-34.42,34.42ZM50,18.58c-17.33,0-31.42,14.1-31.42,31.42s14.1,31.42,31.42,31.42,31.42-14.1,31.42-31.42-14.1-31.42-31.42-31.42Z"/>
  <path class="cls-2" d="M50,74.73c-13.64,0-24.73-11.1-24.73-24.73s11.1-24.73,24.73-24.73,24.73,11.1,24.73,24.73-11.1,24.73-24.73,24.73ZM50,28.27c-11.98,0-21.73,9.75-21.73,21.73s9.75,21.73,21.73,21.73,21.73-9.75,21.73-21.73-9.75-21.73-21.73-21.73Z"/>
  <path class="cls-1" d="M50,64.67c-8.09,0-14.67-6.58-14.67-14.67s6.58-14.67,14.67-14.67,14.67,6.58,14.67,14.67-6.58,14.67-14.67,14.67ZM50,38.33c-6.44,0-11.67,5.24-11.67,11.67s5.24,11.67,11.67,11.67,11.67-5.24,11.67-11.67-5.24-11.67-11.67-11.67Z"/>
  <circle class="cls-2" cx="50" cy="50" r="4.97"/>
</svg>