<?xml version="1.0" encoding="UTF-8"?>
<svg id="Layer_3" data-name="Layer 3" xmlns="http://www.w3.org/2000/svg" viewBox="0 0 100 100">
  <defs>
    <style>
      .cls-1 {
        fill: #004a52;
      }

      .cls-2 {
        fill: #c49e29;
      }
    </style>
  </defs>
  <path class="cls-1" d="M50,86.86c-20.32,0-36.86-16.53-36.86-36.86S29.68,13.14,50,13.14s36.86,16.53,36.86,36.86-16.53,36.86-36.86,36.86ZM50,16.14c-18.67,0-33.86,15.19-33.86,33.86s15.19,33.86,33.86,33.86,33.86-15.19,33.86-33.86-15.19-33.86-33.86-33.86Z"/>
  <path class="cls-1" d="M50,74.01c-13.24,0-24.01-10.77-24.01-24.01s10.77-24.01,24.01-24.01,24.01,10.77,24.01,24.01-10.77,24.01-24.01,24.01ZM50,28.99c-11.58,0-21.01,9.42-21.01,21.01s9.42,21.01,21.01,21.01,21.01-9.42,21.01-21.01-9.42-21.01-21.01-21.01Z"/>
  <path class="cls-2" d="M16.14,50h-3c0-20.32,16.53-36.86,36.86-36.86v3c-18.67,0-33.86,15.19-33.86,33.86Z"/>
  <path class="cls-2" d="M28.99,50h-3c0-13.24,10.77-24.01,24.01-24.01v3c-11.58,0-21.01,9.42-21.01,21.01Z"/>
  <path class="cls-2" d="M50,28.99v-3c2.72,0,4.92-2.21,4.92-4.92s-2.21-4.92-4.92-4.92v-3c4.37,0,7.92,3.55,7.92,7.92s-3.56,7.92-7.92,7.92Z"/>
</svg>