<?xml version="1.0" encoding="UTF-8"?>
<svg id="Layer_3" data-name="Layer 3" xmlns="http://www.w3.org/2000/svg" viewBox="0 0 100 100">
  <defs>
    <style>
      .cls-1 {
        fill: #004a52;
      }

      .cls-2 {
        fill: #c49e29;
      }
    </style>
  </defs>
  <path class="cls-1" d="M50,73.09c-9.21,0-16.71-7.49-16.71-16.71,0-8.3,5.95-15.25,14.14-16.51l.46,2.96c-6.61,1.02-11.6,6.84-11.6,13.55,0,7.56,6.15,13.71,13.71,13.71v3Z"/>
  <path class="cls-1" d="M50,73.09v-3c14.2,0,25.76-11.55,25.76-25.76s-11.55-25.76-25.76-25.76v-3c15.86,0,28.76,12.9,28.76,28.76s-12.9,28.76-28.76,28.76Z"/>
  <path class="cls-1" d="M46.53,47.52l-2.68-1.34,2.13-4.25-4.25-2.13,1.34-2.68,5.59,2.8c.36.18.63.49.75.87.13.38.1.79-.08,1.15l-2.8,5.59Z"/>
  <path class="cls-1" d="M20.9,31.48l-2.22-2.01c8-8.83,19.42-13.89,31.32-13.89v3c-11.06,0-21.67,4.7-29.1,12.9Z"/>
  <path class="cls-2" d="M52.57,60.13l-.46-2.96c6.61-1.02,11.6-6.84,11.6-13.55,0-7.56-6.15-13.71-13.71-13.71v-3c9.21,0,16.71,7.49,16.71,16.71,0,8.3-5.95,15.25-14.14,16.51Z"/>
  <path class="cls-2" d="M50,84.42c-15.86,0-28.76-12.9-28.76-28.76s12.9-28.76,28.76-28.76v3c-14.2,0-25.76,11.55-25.76,25.76s11.55,25.76,25.76,25.76v3Z"/>
  <path class="cls-2" d="M56.93,62.88l-5.59-2.8c-.36-.18-.63-.49-.75-.87-.13-.38-.1-.79.08-1.15l2.8-5.59,2.68,1.34-2.13,4.25,4.25,2.13-1.34,2.68Z"/>
  <path class="cls-2" d="M50,84.42v-3c11.06,0,21.67-4.7,29.1-12.9l2.22,2.01c-8,8.83-19.42,13.89-31.32,13.89Z"/>
</svg>