<?xml version="1.0" encoding="UTF-8"?>
<svg id="Layer_3" data-name="Layer 3" xmlns="http://www.w3.org/2000/svg" viewBox="0 0 100 100">
  <defs>
    <style>
      .cls-1 {
        fill: #004a52;
      }

      .cls-2 {
        fill: #c49e29;
      }
    </style>
  </defs>
  <path class="cls-1" d="M19.14,85.25v-3c1.98,0,3.71-1.27,4.29-3.16l4.98-16.1c.73-2.35,2.87-3.93,5.33-3.93s4.76,1.71,5.4,4.17l1.63,4.43c.35,1.14,1.24,1.24,1.55,1.22.28,0,1.2-.08,1.52-1.12l1-3.25,2.87.88-1,3.25c-.61,1.97-2.33,3.24-4.39,3.24h-.02c-2.07,0-3.79-1.29-4.38-3.27l-1.63-4.41c-.02-.05-.04-.11-.05-.16-.28-1.16-1.31-1.97-2.51-1.97s-2.13.73-2.46,1.82l-4.98,16.1c-.98,3.16-3.85,5.28-7.16,5.28Z"/>
  <path class="cls-1" d="M49.36,60.06l-2.87-.89,4.98-16.1c.73-2.35,2.87-3.93,5.33-3.93s4.77,1.72,5.4,4.18l2.6,7.54s.03.09.04.13c.28,1.16,1.31,1.97,2.51,1.97h.6c1.29,0,2.36-.92,2.55-2.2l3.79-22.03c.49-3.24,3.25-5.61,6.55-5.61v3c-1.81,0-3.32,1.3-3.59,3.09l-3.79,22.03c-.41,2.72-2.73,4.72-5.51,4.72h-.6c-2.56,0-4.77-1.72-5.4-4.19l-2.6-7.54s-.03-.09-.04-.13c-.28-1.16-1.31-1.97-2.51-1.97s-2.13.73-2.47,1.82l-4.98,16.1Z"/>
  <rect class="cls-2" x="62.88" y="16.25" width="3" height="10.4"/>
  <rect class="cls-2" x="59.18" y="19.94" width="10.4" height="3"/>
  <rect class="cls-2" x="50.62" y="25.73" width="3" height="7.71"/>
  <rect class="cls-2" x="48.27" y="28.09" width="7.71" height="3"/>
</svg>