<?xml version="1.0" encoding="UTF-8"?>
<svg id="Layer_3" data-name="Layer 3" xmlns="http://www.w3.org/2000/svg" viewBox="0 0 100 100">
  <defs>
    <style>
      .cls-1 {
        fill: #004a52;
      }

      .cls-2 {
        fill: #c49e29;
      }
    </style>
  </defs>
  <path class="cls-1" d="M76.95,86.04H23.05c-.83,0-1.5-.67-1.5-1.5V16.71c0-.83.67-1.5,1.5-1.5h18.64v3h-17.14v64.83h50.89V18.21h-17.14v-3h18.64c.83,0,1.5.67,1.5,1.5v67.83c0,.83-.67,1.5-1.5,1.5Z"/>
  <path class="cls-1" d="M55.32,22.71h-10.64c-2.47,0-4.49-2.01-4.49-4.49v-3.03c0-2.47,2.01-4.49,4.49-4.49h10.64c2.47,0,4.49,2.01,4.49,4.49v3.03c0,2.47-2.01,4.49-4.49,4.49ZM44.68,13.71c-.82,0-1.49.67-1.49,1.49v3.03c0,.82.67,1.49,1.49,1.49h10.64c.82,0,1.49-.67,1.49-1.49v-3.03c0-.82-.67-1.49-1.49-1.49h-10.64Z"/>
  <g>
    <g>
      <path class="cls-1" d="M37.39,45.9c-.38,0-.77-.15-1.06-.44l-3.61-3.61,2.12-2.12,2.55,2.55,5.14-5.14,2.12,2.12-6.2,6.2c-.29.29-.68.44-1.06.44Z"/>
      <rect class="cls-1" x="51.63" y="40.39" width="14.59" height="3"/>
    </g>
    <g>
      <path class="cls-2" d="M37.39,56.57c-.38,0-.77-.15-1.06-.44l-3.61-3.61,2.12-2.12,2.55,2.55,5.14-5.14,2.12,2.12-6.2,6.2c-.29.29-.68.44-1.06.44Z"/>
      <rect class="cls-1" x="51.63" y="51.06" width="14.59" height="3"/>
    </g>
    <g>
      <path class="cls-1" d="M37.39,67.24c-.4,0-.78-.16-1.06-.44l-3.61-3.61,2.12-2.12,2.55,2.55,5.14-5.14,2.12,2.12-6.2,6.2c-.28.28-.66.44-1.06.44Z"/>
      <rect class="cls-1" x="51.63" y="61.73" width="14.59" height="3"/>
    </g>
  </g>
</svg>