<?xml version="1.0" encoding="UTF-8"?>
<svg id="Layer_3" data-name="Layer 3" xmlns="http://www.w3.org/2000/svg" viewBox="0 0 100 100">
  <defs>
    <style>
      .cls-1 {
        fill: #004a52;
      }

      .cls-2 {
        fill: #c49e29;
      }
    </style>
  </defs>
  <g>
    <path class="cls-1" d="M58.51,85.96c-5.52,0-10.01-4.49-10.01-10.01v-8.65c0-.08,0-.17.02-.25,0-3.83,2.43-7.21,6.15-8.48,2.7-.92,5.28-2.19,7.68-3.78,4.62-3.06,8.43-7.26,11.01-12.12h0c3.68-6.93,6.66-7.77,8.52-7.26,1.85.51,3.99,2.77,3.6,10.62-.5,10.2-5.88,19.65-14.37,25.29-1.63,1.08-2.59,2.8-2.59,4.63,0,5.52-4.49,10.01-10.01,10.01ZM51.5,67.58v8.37c0,3.86,3.14,7.01,7.01,7.01s7.01-3.14,7.01-7.01c0-2.83,1.46-5.49,3.9-7.11,7.74-5.13,12.61-13.71,13.07-22.96.29-5.79-.95-7.45-1.4-7.58-.44-.13-2.36.67-5.07,5.77h0c-2.82,5.3-6.97,9.87-12.01,13.21-2.61,1.73-5.42,3.12-8.37,4.12-2.55.87-4.21,3.21-4.12,5.84,0,.11,0,.22-.02.32Z"/>
    <path class="cls-1" d="M41.49,85.96c-5.52,0-10.01-4.49-10.01-10.01,0-1.83-.96-3.55-2.55-4.6-8.53-5.66-13.91-15.11-14.41-25.31-.39-7.85,1.74-10.1,3.6-10.62,1.85-.51,4.83.33,8.52,7.26,2.58,4.86,6.39,9.05,11.01,12.12,2.39,1.59,4.98,2.86,7.68,3.78,3.72,1.27,6.16,4.65,6.15,8.48.01.08.02.16.02.24v8.65c0,5.52-4.49,10.01-10.01,10.01ZM19.02,38.3s-.07,0-.1.01c-.45.12-1.69,1.79-1.4,7.58.46,9.25,5.33,17.82,13.04,22.93.02.01.07.05.08.06,2.39,1.58,3.84,4.23,3.84,7.07,0,3.86,3.14,7.01,7.01,7.01s7.01-3.14,7.01-7.01v-8.39c-.02-.1-.03-.21-.02-.31.09-2.62-1.56-4.97-4.12-5.84-2.94-1-5.76-2.39-8.37-4.12-5.04-3.34-9.19-7.91-12.01-13.21h0c-2.55-4.79-4.38-5.79-4.97-5.79Z"/>
  </g>
  <path class="cls-2" d="M50,30.19c-4.45,0-8.08-3.62-8.08-8.08s3.62-8.08,8.08-8.08,8.08,3.62,8.08,8.08-3.62,8.08-8.08,8.08ZM50,17.04c-2.8,0-5.08,2.28-5.08,5.08s2.28,5.08,5.08,5.08,5.08-2.28,5.08-5.08-2.28-5.08-5.08-5.08Z"/>
  <path class="cls-2" d="M47.52,51.1c-2.18,0-4.31-.36-6.25-1.06-3.28-1.19-5.46-3.2-5.98-5.5-.52-2.32.67-4.79,3.34-6.94,2.38-1.92,5.75-3.44,9.47-4.27,3.73-.83,7.42-.89,10.39-.17,3.34.81,5.46,2.54,5.98,4.86.51,2.3-.6,5.04-3.06,7.52-2.44,2.45-5.79,4.25-9.44,5.07-1.47.33-2.97.49-4.45.49ZM53.96,35.65c-1.65,0-3.41.2-5.2.6-3.29.73-6.21,2.04-8.24,3.68-1.71,1.38-2.55,2.82-2.3,3.96.27,1.23,1.87,2.54,4.07,3.34,2.68.97,5.97,1.14,9.02.46,3.05-.68,5.96-2.23,7.97-4.26,1.65-1.66,2.54-3.53,2.27-4.75-.25-1.13-1.62-2.08-3.76-2.6-1.15-.28-2.45-.42-3.82-.42Z"/>
</svg>