<?xml version="1.0" encoding="UTF-8"?>
<svg id="Layer_3" data-name="Layer 3" xmlns="http://www.w3.org/2000/svg" viewBox="0 0 100 100">
  <defs>
    <style>
      .cls-1 {
        fill: #004a52;
      }

      .cls-2 {
        fill: #c49e29;
      }
    </style>
  </defs>
  <path class="cls-1" d="M50,84.42c-18.98,0-34.42-15.44-34.42-34.42S31.02,15.58,50,15.58s34.42,15.44,34.42,34.42-15.44,34.42-34.42,34.42ZM50,18.58c-17.33,0-31.42,14.1-31.42,31.42s14.1,31.42,31.42,31.42,31.42-14.1,31.42-31.42-14.1-31.42-31.42-31.42Z"/>
  <path class="cls-2" d="M49.97,37.7c-3.66,0-6.64-2.98-6.64-6.64s2.98-6.64,6.64-6.64,6.64,2.98,6.64,6.64-2.98,6.64-6.64,6.64ZM49.97,27.43c-2.01,0-3.64,1.63-3.64,3.64s1.63,3.64,3.64,3.64,3.64-1.63,3.64-3.64-1.63-3.64-3.64-3.64Z"/>
  <path class="cls-1" d="M48.03,54.05c-4.86,0-9.16-2.17-9.88-5.38-.83-3.73,3.58-7.67,10.26-9.16,2.96-.66,5.9-.71,8.27-.13,2.74.67,4.48,2.11,4.91,4.05.43,1.91-.48,4.16-2.48,6.18-1.95,1.96-4.63,3.4-7.54,4.05-1.19.27-2.38.39-3.55.39ZM53.07,41.98c-1.27,0-2.64.15-4,.46-5.37,1.2-8.32,4.1-7.99,5.58.37,1.65,4.68,3.88,9.84,2.72,2.33-.52,4.54-1.7,6.07-3.24,1.47-1.48,1.83-2.77,1.68-3.41h0c-.17-.75-1.18-1.42-2.7-1.79-.86-.21-1.85-.31-2.9-.31Z"/>
  <path class="cls-1" d="M56.25,75.58c-2.46,0-4.66-2.68-6.25-5.89-1.78,3.6-4.33,6.53-7.15,5.77-1.04-.28-2.84-1.35-3.26-5.4-.26-2.52.06-5.66.92-8.83,1.07-3.99,5.54-5.77,9.49-5.77s8.43,1.78,9.49,5.77c.85,3.18,1.18,6.31.92,8.83-.42,4.05-2.23,5.12-3.26,5.4-.3.08-.6.12-.9.12ZM50,64.26c.64,0,1.22.41,1.42,1.02,1.72,5.11,4.16,7.49,4.95,7.28.3-.08.86-.92,1.06-2.82.22-2.16-.07-4.92-.83-7.75-.66-2.45-3.79-3.55-6.6-3.55s-5.94,1.1-6.6,3.55c-.76,2.83-1.05,5.58-.83,7.75.2,1.9.75,2.73,1.06,2.82.76.2,3.22-2.17,4.95-7.28.21-.61.78-1.02,1.42-1.02Z"/>
</svg>