<?xml version="1.0" encoding="UTF-8"?><svg id="Layer_3" xmlns="http://www.w3.org/2000/svg" viewBox="0 0 100 100"><defs><style>.cls-1{fill:#fff;}</style></defs><path class="cls-1" d="M64.42188,66.09082c-6.7832,0-13.56641-2.58203-18.73047-7.74609-5.00293-5.00293-7.75879-11.6543-7.75879-18.72949s2.75586-13.72705,7.75879-18.72998c10.32715-10.32617,27.13086-10.32812,37.45996,0,10.32715,10.32764,10.32715,27.13232,0,37.45947h0c-5.16406,5.16406-11.94727,7.74609-18.72949,7.74609ZM64.42188,16.13818c-6.01562,0-12.0293,2.28906-16.60939,6.86816-4.43651,4.43652-6.87987,10.33496-6.87987,16.60889s2.44336,12.17188,6.87987,16.6084c9.15626,9.15723,24.05763,9.15723,33.21779,0h0c9.15721-9.15771,9.15721-24.05908,0-33.21729-4.5791-4.57812-10.59473-6.86816-16.6084-6.86816Z"/><rect class="cls-1" x="35.46008" y="60.46159" width="13.22924" height="2.99967" transform="translate(-31.48995 47.89939) rotate(-45)"/><path class="cls-1" d="M22.65918,90.47754c-1.55664,0-3.11328-.5918-4.29785-1.77734l-3.02441-3.02441c-2.37012-2.37012-2.37012-6.22656,0-8.59668l13.0127-13.0127c2.37012-2.37109,6.22852-2.36914,8.59668,0l3.02441,3.02441c1.14844,1.14844,1.78027,2.6748,1.78027,4.29785s-.63184,3.14941-1.78027,4.29785l-13.01367,13.01367c-1.18457,1.18555-2.74121,1.77734-4.29785,1.77734ZM32.64746,65.28711c-.78809,0-1.57617.2998-2.17676.90039l-13.0127,13.0127c-1.2002,1.2002-1.2002,3.1543,0,4.35449l3.02441,3.02441c1.20117,1.19922,3.15234,1.19922,4.35352,0l13.01367-13.01367c1.2002-1.2002,1.2002-3.15332,0-4.35352l-3.02441-3.02441c-.60059-.60059-1.38867-.90039-2.17773-.90039Z"/><path class="cls-1" d="M64.44434,57.09863c-1.23926,0-2.49023-.13184-3.73438-.40137-2.56152-.55371-4.53516-2.39453-5.2793-4.92285-.74219-2.52148-.05176-5.23828,1.80078-7.09082l12.25781-12.25781c1.85156-1.85352,4.56738-2.54395,7.09082-1.80078,2.52832.74414,4.36914,2.71777,4.92285,5.27979,1.26367,5.84033-.50195,11.84814-4.72266,16.06982h0c-3.32227,3.32227-7.75195,5.12402-12.33594,5.12402ZM74.52539,33.32666c-1.08105,0-2.11816.42334-2.91504,1.22021l-12.25781,12.25781c-1.0918,1.09229-1.48242,2.6333-1.04395,4.12256.42969,1.4585,1.56445,2.52002,3.03613,2.83838,4.83984,1.04688,9.81738-.41504,13.31445-3.9126h0c3.49707-3.49707,4.95898-8.47412,3.91211-13.31396-.31836-1.47217-1.37988-2.60693-2.83789-3.03613-.40234-.11816-.80859-.17627-1.20801-.17627Z"/></svg>