<?xml version="1.0" encoding="UTF-8"?><svg id="Layer_3" xmlns="http://www.w3.org/2000/svg" viewBox="0 0 100 100"><defs><style>.cls-1{fill:#fff;}</style></defs><path class="cls-1" d="M78.06543,89.28809H21.93457c-4.81543,0-8.73242-3.91699-8.73242-8.73242V24.4248c0-4.81543,3.91699-8.73242,8.73242-8.73242h56.13086c4.81543,0,8.73242,3.91699,8.73242,8.73242v56.13086c0,4.81543-3.91699,8.73242-8.73242,8.73242ZM21.93457,18.69238c-3.16113,0-5.73242,2.57129-5.73242,5.73242v56.13086c0,3.16113,2.57129,5.73242,5.73242,5.73242h56.13086c3.16113,0,5.73242-2.57129,5.73242-5.73242V24.4248c0-3.16113-2.57129-5.73242-5.73242-5.73242H21.93457Z"/><rect class="cls-1" x="14.70215" y="32.94629" width="70.5957" height="3"/><rect class="cls-1" x="28.13477" y="12.21191" width="3" height="9.96094"/><rect class="cls-1" x="68.86523" y="12.21191" width="3" height="9.96094"/><path class="cls-1" d="M50,76.88184c-8.85742,0-16.06348-7.20605-16.06348-16.06348s7.20605-16.06348,16.06348-16.06348,16.06348,7.20605,16.06348,16.06348-7.20605,16.06348-16.06348,16.06348ZM50,47.75488c-7.20312,0-13.06348,5.86035-13.06348,13.06348s5.86035,13.06348,13.06348,13.06348,13.06348-5.86035,13.06348-13.06348-5.86035-13.06348-13.06348-13.06348Z"/><path class="cls-1" d="M55.74512,62.31836h-5.74512c-.82812,0-1.5-.67188-1.5-1.5v-7.34863h3v5.84863h4.24512v3Z"/></svg>