<?xml version="1.0" encoding="UTF-8"?><svg id="Layer_3" xmlns="http://www.w3.org/2000/svg" viewBox="0 0 100 100"><defs><style>.cls-1{fill:#fff;}</style></defs><path class="cls-1" d="M50,86.71143v-3c18.29688,0,31.04688-19.17041,31.04688-36.37598,0-17.11914-13.92773-31.04688-31.04688-31.04688s-31.04688,13.92773-31.04688,31.04688h-3c0-18.77344,15.27344-34.04688,34.04688-34.04688s34.04688,15.27344,34.04688,34.04688c0,18.62451-13.98242,39.37598-34.04688,39.37598Z"/><path class="cls-1" d="M43.83594,75.21826c-15.375,0-27.88281-12.5083-27.88281-27.88281h3c0,13.72021,11.16211,24.88281,24.88281,24.88281s24.88379-11.1626,24.88379-24.88281h3c0,15.37451-12.50879,27.88281-27.88379,27.88281Z"/><path class="cls-1" d="M43.83594,75.21826c-15.375,0-27.88281-12.5083-27.88281-27.88281h3c0,13.72021,11.16211,24.88281,24.88281,24.88281v3Z"/><path class="cls-1" d="M71.71973,47.33545h-3c0-10.32227-8.39746-18.71973-18.71973-18.71973s-18.71973,8.39746-18.71973,18.71973h-3c0-11.97607,9.74316-21.71973,21.71973-21.71973s21.71973,9.74365,21.71973,21.71973Z"/><path class="cls-1" d="M45.64551,64.7002c-9.5752,0-17.36523-7.79004-17.36523-17.36475h3c0,7.9209,6.44434,14.36475,14.36523,14.36475s14.36523-6.44385,14.36523-14.36475h3c0,9.57471-7.79004,17.36475-17.36523,17.36475Z"/><path class="cls-1" d="M63.01074,47.33545h-3c0-5.52002-4.49121-10.01074-10.01074-10.01074s-10.01074,4.49072-10.01074,10.01074h-3c0-7.17432,5.83691-13.01074,13.01074-13.01074s13.01074,5.83643,13.01074,13.01074Z"/><path class="cls-1" d="M46.51855,56.75781c-5.25488,0-9.5293-4.27441-9.5293-9.52881h3c0,3.6001,2.92871,6.52881,6.5293,6.52881,3.59961,0,6.52832-2.92871,6.52832-6.52881h3c0,5.25439-4.27441,9.52881-9.52832,9.52881Z"/><path class="cls-1" d="M56.04688,47.40039h-3c0-1.6084-1.30859-2.9165-2.91602-2.9165-1.6084,0-2.91699,1.30811-2.91699,2.9165h-3c0-3.26221,2.6543-5.9165,5.91699-5.9165,3.26172,0,5.91602,2.6543,5.91602,5.9165Z"/></svg>