<?xml version="1.0" encoding="UTF-8"?><svg id="Layer_3" xmlns="http://www.w3.org/2000/svg" viewBox="0 0 100 100"><defs><style>.cls-1{fill:#fff;}</style></defs><path class="cls-1" d="M28.18848,45.1792c-1.59863,0-3.20312-.38477-4.67383-1.1792,0-.00049-.00098-.00049-.00098-.00049l-.3916-.21191c-2.47461-1.33691-4.28027-3.67188-4.9541-6.40479-.66895-2.7124-.16113-5.59277,1.3916-7.90234,2.81543-4.18457,6.41309-7.69092,10.69336-10.42285,9.76465-6.23047,22.05956-7.47656,32.89258-3.33252,6.95801,2.6626,10.25977,5.53906,9.81445,8.54932-.44434,2.99561-4.40723,4.78223-11.77832,5.31006-6.33203.45312-12.52637,2.51025-17.91406,5.94873-2.78906,1.7793-5.33398,3.90723-7.56543,6.3252-2.00488,2.17139-4.75098,3.3208-7.51367,3.3208ZM24.94043,41.36035c2.80566,1.51562,6.32422.8833,8.55664-1.53711,2.40625-2.60693,5.15137-4.90137,8.15723-6.81934,5.80664-3.70605,12.48438-5.92334,19.3125-6.41162,7.14453-.51172,8.9375-2.16406,9.02539-2.75732.08887-.59961-1.16113-2.72217-7.91895-5.30811-9.94824-3.80615-21.24023-2.66309-30.20703,3.06006-3.93066,2.5083-7.2334,5.72754-9.81738,9.56787-1.09766,1.63232-1.44141,3.58936-.96875,5.51025.47168,1.91309,1.73633,3.54736,3.46875,4.4834l.3916.21191Z"/><path class="cls-1" d="M49.96484,86.68848c-4.43457,0-8.88379-.79639-13.11035-2.41357-6.95801-2.6626-10.25977-5.53906-9.81445-8.54932.44434-2.99561,4.40723-4.78223,11.77832-5.31006,6.33203-.45312,12.52637-2.51025,17.91406-5.94873,2.78906-1.7793,5.33398-3.90723,7.56543-6.3252,3.16504-3.42773,8.1748-4.30957,12.1875-2.1416,0,.00049.00098.00049.00098.00049l.3916.21191c2.47461,1.33691,4.28027,3.67188,4.9541,6.40479.66895,2.7124.16113,5.59277-1.3916,7.90234-2.81543,4.18457-6.41309,7.69092-10.69336,10.42285-5.9541,3.7998-12.85059,5.74609-19.78223,5.74609ZM71.81055,57.82129c-1.94629,0-3.88672.81592-5.30762,2.35547-2.40625,2.60693-5.15137,4.90137-8.15723,6.81934-5.80664,3.70605-12.48438,5.92334-19.3125,6.41162-7.14453.51172-8.9375,2.16406-9.02539,2.75732-.08887.59961,1.16113,2.72217,7.91895,5.30811,9.94727,3.80615,21.23926,2.6626,30.20703-3.06006,3.93066-2.5083,7.2334-5.72754,9.81738-9.56787,1.09766-1.63232,1.44141-3.58936.96875-5.51025-.47168-1.91309-1.73633-3.54736-3.46875-4.4834l-.3916-.21191c-1.02051-.55127-2.13574-.81836-3.24902-.81836Z"/><path class="cls-1" d="M50,59.89307c-5.45508,0-9.89355-4.43799-9.89355-9.89307s4.43848-9.89307,9.89355-9.89307,9.89355,4.43799,9.89355,9.89307-4.43848,9.89307-9.89355,9.89307ZM50,43.10693c-3.80078,0-6.89355,3.09229-6.89355,6.89307s3.09277,6.89307,6.89355,6.89307,6.89355-3.09229,6.89355-6.89307-3.09277-6.89307-6.89355-6.89307Z"/></svg>