<?xml version="1.0" encoding="UTF-8"?><svg id="Layer_3" xmlns="http://www.w3.org/2000/svg" viewBox="0 0 100 100"><defs><style>.cls-1{fill:#fff;}</style></defs><path class="cls-1" d="M27.42969,80.26172c-1.00098,0-1.99902-.27344-2.90039-.81836-1.73535-1.0498-2.74707-2.88672-2.70703-4.91504l.09277-4.52637c-5.0957-4.55664-8.00391-11.0332-8.00391-17.88281v-11.45654c0-13.22998,10.76367-23.99365,23.99414-23.99365h24.18945c13.23047,0,23.99414,10.76367,23.99414,23.99365v11.45654c0,13.22949-10.76367,23.99316-23.99414,23.99316h-24.18945c-.44238,0-.91113-.01562-1.42383-.04785l-6.34375,3.49316c-.85449.46973-1.78223.7041-2.70801.7041ZM37.90527,19.66895c-11.57617,0-20.99414,9.41748-20.99414,20.99365v11.45654c0,6.2041,2.72754,12.05957,7.4834,16.06348.34668.29199.54296.72461.53418,1.17773l-.10645,5.22852c-.01953.94336.45117,1.79883,1.25879,2.28711.80957.48926,1.78223.50781,2.60938.05273l6.73145-3.70605c.25684-.14062.54883-.20215.83887-.18066.625.04785,1.14746.07031,1.64453.07031h24.18945c11.57617,0,20.99414-9.41797,20.99414-20.99316v-11.45654c0-11.57617-9.41797-20.99365-20.99414-20.99365h-24.18945Z"/><path class="cls-1" d="M49.99902,44.23877c-4.45215,0-8.07422-3.62256-8.07422-8.0752s3.62207-8.0752,8.07422-8.0752c4.45312,0,8.0752,3.62256,8.0752,8.0752s-3.62207,8.0752-8.0752,8.0752ZM49.99902,31.08838c-2.79785,0-5.07422,2.27686-5.07422,5.0752s2.27637,5.0752,5.07422,5.0752c2.79883,0,5.0752-2.27686,5.0752-5.0752s-2.27637-5.0752-5.0752-5.0752Z"/><path class="cls-1" d="M47.62695,65.13477c-6.01758,0-11.47266-2.66992-12.33887-6.54492-1.0127-4.53711,4.49609-9.35889,12.81348-11.21777,8.32129-1.85986,15.35547.16064,16.36914,4.69727h0c1.07129,4.79785-5.00684,10.91699-12.50586,12.5918-1.44141.32227-2.90625.47363-4.33789.47363ZM53.89648,49.71143c-1.57812,0-3.31836.18115-5.14062.58838-6.6748,1.49121-11.07031,5.26172-10.54004,7.63574.5625,2.51953,6.44531,5.28613,13.09473,3.79785,6.6543-1.48633,10.79492-6.49023,10.23242-9.00977h0c-.38574-1.72607-3.44141-3.01221-7.64648-3.01221Z"/></svg>