<?xml version="1.0" encoding="UTF-8"?><svg id="Layer_3" xmlns="http://www.w3.org/2000/svg" viewBox="0 0 100 100"><defs><style>.cls-1{fill:#fff;}</style></defs><path class="cls-1" d="M49.5791,89.29004c-5.55078,0-10.97168-1.23535-15.57031-3.58203-5.38477-2.74805-8.82617-6.72656-9.20703-10.64062-.76367-7.85156,10.40234-15.14551,25.41992-16.60645,6.98242-.67773,13.69824.03711,18.91602,2.01562,5.56738,2.11035,8.84473,5.44336,9.22852,9.38184h0c.74902,7.7002-10.08008,17.78906-25.16309,19.25586-1.20898.11719-2.41992.17578-3.62402.17578ZM55.33203,61.20996c-1.57617,0-3.18848.07812-4.81934.2373-12.89941,1.25391-23.30566,7.3584-22.72461,13.3291.27637,2.84863,3.18262,6.0127,7.58496,8.25977,5.0166,2.56055,11.40527,3.68555,17.53906,3.0918,13.80469-1.34277,23.00293-10.47656,22.46777-15.97852h0c-.2627-2.7041-2.92578-5.20703-7.30566-6.86816-3.59766-1.36426-8.00684-2.07129-12.74219-2.07129Z"/><path class="cls-1" d="M51.58398,55.22656c-8.27832,0-15.0127-6.73438-15.0127-15.0127s6.73438-15.01367,15.0127-15.01367,15.01367,6.73535,15.01367,15.01367-6.73535,15.0127-15.01367,15.0127ZM51.58398,28.2002c-6.62402,0-12.0127,5.38965-12.0127,12.01367s5.38867,12.0127,12.0127,12.0127,12.01367-5.38867,12.01367-12.0127-5.38965-12.01367-12.01367-12.01367Z"/><path class="cls-1" d="M70.96289,36.38379c-.54199,0-1.08203-.14844-1.57031-.44336-.93945-.56836-1.4873-1.5625-1.46582-2.66016l.02637-1.27637c-1.90625-1.8623-2.98633-4.40723-2.98633-7.08984v-4.28613c0-5.46777,4.44824-9.91602,9.91602-9.91602h9.05078c5.46777,0,9.91602,4.44824,9.91602,9.91602v4.28613c0,5.46777-4.44824,9.91602-9.91602,9.91602h-9.05078c-.10449,0-.20898-.00195-.31348-.00586l-2.13965,1.17871c-.46289.25391-.96484.38086-1.4668.38086ZM74.88281,13.71191c-3.81348,0-6.91602,3.10254-6.91602,6.91602v4.28613c0,2.04297.89941,3.97168,2.4668,5.29199.3457.29199.54199.72461.5332,1.17773l-.04004,1.95605,2.57422-1.35254c.25684-.14062.5459-.20508.83789-.18164.17969.01367.36035.02441.54395.02441h9.05078c3.81348,0,6.91602-3.10254,6.91602-6.91602v-4.28613c0-3.81348-3.10254-6.91602-6.91602-6.91602h-9.05078Z"/><path class="cls-1" d="M29.03613,61.29102c-.50098,0-1.00293-.12695-1.46484-.38086l-2.14062-1.17871c-.10449.00391-.20898.00586-.31348.00586h-9.05078c-5.46777,0-9.91602-4.44824-9.91602-9.91602v-4.28711c0-5.46777,4.44824-9.91602,9.91602-9.91602h9.05078c5.46777,0,9.91602,4.44824,9.91602,9.91602v4.28711c0,2.68262-1.08008,5.22754-2.98633,7.08984l.02637,1.27539c.02148,1.09863-.52637,2.09277-1.46582,2.66113-.48828.29492-1.0293.44336-1.57129.44336ZM25.77539,56.70898c.25195,0,.50098.06348.72363.18555l2.51855,1.38672.01562-1.99023c-.00879-.45312.1875-.88574.5332-1.17773,1.56738-1.32031,2.4668-3.24902,2.4668-5.29199v-4.28711c0-3.81348-3.10254-6.91602-6.91602-6.91602h-9.05078c-3.81348,0-6.91602,3.10254-6.91602,6.91602v4.28711c0,3.81348,3.10254,6.91602,6.91602,6.91602h9.05078c.18359,0,.36426-.01074.54395-.02441.03809-.00293.07617-.00391.11426-.00391Z"/></svg>