<?xml version="1.0" encoding="UTF-8"?><svg id="Layer_3" xmlns="http://www.w3.org/2000/svg" viewBox="0 0 100 100"><defs><style>.cls-1{fill:#fff;}</style></defs><path class="cls-1" d="M50,63.46631c-10.05664,0-18.23828-8.18164-18.23828-18.23779,0-6.44189,7.09326-17.82324,13.04346-26.23682,1.20947-1.71045,3.10303-2.69092,5.19482-2.69092s3.98535.98047,5.19482,2.69092c5.9502,8.41357,13.04346,19.79492,13.04346,26.23682,0,10.05615-8.18164,18.23779-18.23828,18.23779ZM50,19.30078c-1.10498,0-2.10596.51855-2.74561,1.42334-7.93945,11.22559-12.49268,20.15723-12.49268,24.50439,0,8.40234,6.83594,15.23779,15.23828,15.23779s15.23828-6.83545,15.23828-15.23779c0-4.34717-4.55322-13.27881-12.49268-24.50439-.63965-.90479-1.64062-1.42334-2.74561-1.42334Z"/><path class="cls-1" d="M50,74.48047v-3c14.05029,0,21.29541-3.36426,21.29541-4.79932,0-.34277-.79346-1.48975-4.41748-2.66162l.92285-2.85449c4.30957,1.39355,6.49463,3.24951,6.49463,5.51611,0,5.35889-12.59424,7.79932-24.29541,7.79932Z"/><path class="cls-1" d="M50,83.69971v-3c20.2583,0,34.37598-6.36523,34.37598-12.07812,0-2.56348-2.8042-5.27637-7.69385-7.44287l1.21484-2.74316c6.20117,2.74756,9.479,6.27002,9.479,10.18604,0,8.45508-16.41748,15.07812-37.37598,15.07812Z"/><path class="cls-1" d="M50,74.48047c-11.70117,0-24.29541-2.44043-24.29541-7.79932,0-2.2666,2.18506-4.12256,6.49463-5.51611l.92285,2.85449c-3.62402,1.17188-4.41748,2.31885-4.41748,2.66162,0,1.43506,7.24512,4.79932,21.29541,4.79932v3Z"/><path class="cls-1" d="M50,83.69971c-20.9585,0-37.37598-6.62305-37.37598-15.07812,0-3.91602,3.27783-7.43848,9.479-10.18604l1.21484,2.74316c-4.88965,2.1665-7.69385,4.87939-7.69385,7.44287,0,5.71289,14.11768,12.07812,34.37598,12.07812v3Z"/><path class="cls-1" d="M48.17432,54.57812c-4.60254,0-8.34717-3.74414-8.34717-8.34668h3c0,2.94824,2.39893,5.34668,5.34717,5.34668v3Z"/></svg>