<?xml version="1.0" encoding="UTF-8"?><svg id="Layer_3" xmlns="http://www.w3.org/2000/svg" viewBox="0 0 100 100"><defs><style>.cls-1{fill:#fff;}</style></defs><path class="cls-1" d="M73.12549,87.66406H26.87451c-3.8125,0-6.91406-3.10156-6.91406-6.91406V19.25c0-3.8125,3.10156-6.91406,6.91406-6.91406h34.93408c.39795,0,.7793.1582,1.06055.43945l16.73096,16.73047c.28125.28125.43945.66309.43945,1.06055v50.18359c0,3.8125-3.10156,6.91406-6.91406,6.91406ZM26.87451,15.33594c-2.1582,0-3.91406,1.75586-3.91406,3.91406v61.5c0,2.1582,1.75586,3.91406,3.91406,3.91406h46.25098c2.1582,0,3.91406-1.75586,3.91406-3.91406V31.1875l-15.85205-15.85156H26.87451Z"/><path class="cls-1" d="M78.53955,32.06641h-13.23193c-2.75635,0-4.99902-2.24219-4.99902-4.99902v-13.23145h3v13.23145c0,1.10254.89697,1.99902,1.99902,1.99902h13.23193v3Z"/><path class="cls-1" d="M46.96094,69.1875c-1.46191,0-2.92334-.55664-4.03613-1.66895l-7.78369-7.78418c-2.2251-2.22559-2.2251-5.84668-.00049-8.07227,2.22656-2.22559,5.84668-2.22363,8.07227,0l3.74805,3.74805,9.82617-9.82617h0c2.22559-2.22461,5.84619-2.22461,8.07178,0,2.2251,2.22559,2.2251,5.84668.00049,8.07227l-13.8623,13.8623c-1.11279,1.1123-2.57471,1.66797-4.03613,1.66895ZM39.17725,52.99219c-.69336,0-1.38721.26367-1.91504.79102-1.05518,1.05566-1.05518,2.77441.00049,3.83008l7.7832,7.7832c1.05664,1.05664,2.77441,1.05566,3.83008.00098l13.86182-13.8623c1.05518-1.05566,1.05518-2.77441-.00049-3.83008-1.05469-1.05469-2.77344-1.05469-3.8291,0l-10.88672,10.88672c-.58594.58594-1.53516.58594-2.12109,0l-4.80859-4.80859c-.52783-.52734-1.22119-.79102-1.91455-.79102Z"/></svg>