<?xml version="1.0" encoding="UTF-8"?><svg id="Layer_3" xmlns="http://www.w3.org/2000/svg" viewBox="0 0 100 100"><defs><style>.cls-1{fill:#fff;}</style></defs><path class="cls-1" d="M50,62.69336c-5.31055,0-9.63086-4.32031-9.63086-9.63086,0-4.86426,7.58203-14.75537,8.44629-15.86719.56836-.73047,1.80078-.73047,2.36914,0,.86426,1.11182,8.44629,11.00293,8.44629,15.86719,0,5.31055-4.32031,9.63086-9.63086,9.63086ZM50,40.61035c-2.94434,4.03125-6.63086,9.91504-6.63086,12.45215,0,3.65625,2.97461,6.63086,6.63086,6.63086s6.63086-2.97461,6.63086-6.63086c0-2.53955-3.68555-8.42236-6.63086-12.45215Z"/><rect class="cls-1" x="27.09277" y="14.78857" width="3" height="70.42285"/><rect class="cls-1" x="69.90723" y="14.78857" width="3" height="70.42285"/></svg>