<?xml version="1.0" encoding="UTF-8"?><svg id="Layer_3" xmlns="http://www.w3.org/2000/svg" viewBox="0 0 100 100"><defs><style>.cls-1{fill:#fff;}</style></defs><path class="cls-1" d="M36.08887,71.35107c-11.77246,0-21.35059-9.57812-21.35059-21.35107s9.57812-21.35107,21.35059-21.35107c11.77344,0,21.35156,9.57812,21.35156,21.35107h-3c0-10.11865-8.23242-18.35107-18.35156-18.35107-10.11816,0-18.35059,8.23242-18.35059,18.35107s8.23242,18.35107,18.35059,18.35107c4.90234,0,9.51074-1.90869,12.97656-5.375l2.12109,2.12109c-4.03223,4.03271-9.39355,6.25391-15.09766,6.25391Z"/><path class="cls-1" d="M63.91113,71.35107c-11.77344,0-21.35156-9.57812-21.35156-21.35107h3c0,10.11865,8.23242,18.35107,18.35156,18.35107,10.11816,0,18.35059-8.23242,18.35059-18.35107s-8.23242-18.35107-18.35059-18.35107c-4.84082,0-9.40723,1.86768-12.86035,5.25928l-2.10156-2.13965c4.0166-3.94629,9.33008-6.11963,14.96191-6.11963,11.77246,0,21.35059,9.57812,21.35059,21.35107s-9.57812,21.35107-21.35059,21.35107Z"/><path class="cls-1" d="M36.08887,71.35107c-11.77246,0-21.35059-9.57812-21.35059-21.35107s9.57812-21.35107,21.35059-21.35107c11.77344,0,21.35156,9.57812,21.35156,21.35107h-3c0-10.11865-8.23242-18.35107-18.35156-18.35107-10.11816,0-18.35059,8.23242-18.35059,18.35107s8.23242,18.35107,18.35059,18.35107v3Z"/></svg>