<?xml version="1.0" encoding="UTF-8"?><svg id="Layer_3" xmlns="http://www.w3.org/2000/svg" viewBox="0 0 100 100"><defs><style>.cls-1{fill:#fff;}</style></defs><path class="cls-1" d="M50,86.85742c-3.44922,0-6.40234-1.9834-7.70605-5.17676l-5.00293-12.25488c-1.63574-2.66602-4.06445-4.74902-7.03125-6.02637-8.97656-3.86621-14.77637-12.67773-14.77637-22.44727v-3.37109c0-13.47559,10.96289-24.43848,24.43848-24.43848h20.15625c13.47559,0,24.43848,10.96289,24.43848,24.43848v3.37109c0,9.76953-5.7998,18.58105-14.77637,22.44727-2.9668,1.27734-5.39551,3.36035-7.03125,6.02637l-5.00293,12.25488c-1.30371,3.19336-4.25684,5.17676-7.70605,5.17676ZM39.92188,16.14258c-11.82129,0-21.43848,9.61719-21.43848,21.43848v3.37109c0,8.57031,5.08887,16.2998,12.96387,19.69141,3.58105,1.54297,6.51074,4.07715,8.47168,7.33008.04004.06641.0752.13574.10449.20703l5.04785,12.36523c.99707,2.44141,3.19922,3.31152,4.92871,3.31152s3.93164-.87012,4.92871-3.31152l5.04785-12.36523c.0293-.07129.06445-.14062.10449-.20703,1.96094-3.25293,4.89062-5.78711,8.47168-7.33008,7.875-3.3916,12.96387-11.12109,12.96387-19.69141v-3.37109c0-11.82129-9.61719-21.43848-21.43848-21.43848h-20.15625Z"/><path class="cls-1" d="M57.35742,49.47363h-14.71484c-5.82812,0-10.57031-4.74219-10.57031-10.57031s4.74219-10.56934,10.57031-10.56934h14.71484c5.82812,0,10.57031,4.74121,10.57031,10.56934s-4.74219,10.57031-10.57031,10.57031ZM42.64258,31.33398c-4.17383,0-7.57031,3.39551-7.57031,7.56934s3.39648,7.57031,7.57031,7.57031h14.71484c4.17383,0,7.57031-3.39648,7.57031-7.57031s-3.39648-7.56934-7.57031-7.56934h-14.71484Z"/></svg>