<?xml version="1.0" encoding="UTF-8"?><svg id="Layer_3" xmlns="http://www.w3.org/2000/svg" viewBox="0 0 100 100"><defs><style>.cls-1{fill:#fff;}</style></defs><path class="cls-1" d="M58.26514,43.22607c-.36621,0-.73291-.09424-1.0625-.28467l-7.20264-4.16162-7.20215,4.16162c-.72559.41895-1.63379.37207-2.31299-.12109-.67871-.49316-1.00439-1.3418-.83008-2.16211l1.73242-8.13623-6.18359-5.56348c-.62305-.56104-.85889-1.43848-.59961-2.23633.25879-.79834.96533-1.37061,1.7998-1.45801l8.27344-.8667,3.38037-7.60059c.34082-.76611,1.10352-1.26172,1.94238-1.26172s1.60156.49561,1.94238,1.26172l3.38037,7.60059,8.27295.8667c.83496.0874,1.5415.65967,1.80029,1.45801.25928.79785.02344,1.67529-.6001,2.23633l-6.18311,5.56348,1.73242,8.13574c.17432.8208-.15137,1.66943-.83008,2.1626-.37061.26953-.80957.40576-1.25.40576ZM50,35.54736c.25928,0,.51807.06689.75049.20117l6.25098,3.6123-1.50342-7.06152c-.11133-.52441.06543-1.06885.46387-1.42773l5.3667-4.82861-7.18018-.75244c-.5332-.05566-.99609-.39209-1.21436-.88184l-2.93408-6.59668-2.93408,6.59668c-.21826.48975-.68115.82617-1.21436.88184l-7.18018.75244,5.3667,4.82861c.39844.35889.5752.90332.46387,1.42773l-1.50342,7.06152,6.25098-3.6123c.23242-.13428.49121-.20117.75049-.20117Z"/><path class="cls-1" d="M23.34717,77.50684c-.27002,0-.53613-.00195-.80811-.00586h-3.13281v-3h3.15381c33.1543.47656,48.47949-29.85596,51.78467-37.43604l-11.16895-1.75293.46484-2.96387,13.04443,2.04736c.44238.06934.83008.33252,1.05811.71777.22803.38477.27246.85156.12061,1.27246-.14893.41406-15.27539,41.11719-54.5166,41.12109Z"/><path class="cls-1" d="M76.63232,77.50684c-39.22607.00098-54.34717-40.70703-54.49609-41.12109-.15186-.4209-.10742-.8877.12061-1.27246.22803-.38525.61572-.64844,1.05811-.71777l13.04443-2.04736.46484,2.96387-11.16895,1.75293c3.2793,7.52197,18.38525,37.44189,51.00342,37.44189.25342,0,.50488-.00195.76025-.00586h3.1748v3h-3.15381c-.27002.00391-.54004.00586-.80762.00586Z"/><rect class="cls-1" x="19.40625" y="83.46484" width="60.20068" height="3"/></svg>