<?xml version="1.0" encoding="UTF-8"?><svg id="Layer_3" xmlns="http://www.w3.org/2000/svg" viewBox="0 0 100 100"><defs><style>.cls-1{fill:#fff;}</style></defs><rect class="cls-1" x="37.10254" y="65.57227" width="3" height="9.25977"/><rect class="cls-1" x="67.93799" y="37.10254" width="13.5791" height="3"/><path class="cls-1" d="M56.94629,86.31641h-13.89258c-3.28125,0-5.95117-2.66992-5.95117-5.95215v-5.94336h3v5.94336c0,1.62793,1.32373,2.95215,2.95117,2.95215h13.89258c1.62744,0,2.95117-1.32422,2.95117-2.95215v-18.9668c0-.82812.67139-1.5,1.5-1.5h18.96729c1.62744,0,2.95166-1.32422,2.95166-2.95117v-13.89258c0-.94043-.45508-1.83301-1.2168-2.38818l1.7666-2.4248c1.53418,1.11768,2.4502,2.91699,2.4502,4.81299v13.89258c0,3.28125-2.66992,5.95117-5.95166,5.95117h-17.46729v17.4668c0,3.28223-2.66992,5.95215-5.95117,5.95215Z"/><path class="cls-1" d="M25.3877,78.7832c-4.40576,0-7.69531-1.2998-9.55908-3.85547-2.45898-3.37012-2.11182-8.37207,1.00391-14.46582l2.6709,1.36523c-2.5293,4.94727-2.97363,8.97168-1.25098,11.33301,2.09131,2.86816,7.45361,3.41797,14.70898,1.50586,7.8252-2.05957,16.90186-6.67188,25.55859-12.9873,8.65625-6.31445,15.81982-13.54932,20.1709-20.37158,4.03467-6.32617,5.14893-11.59912,3.05664-14.46631-2.66211-3.6499-10.54443-3.48633-20.57227.42432l-1.08984-2.79492c11.69727-4.56445,20.47607-4.34424,24.08594.60254,2.90088,3.97656,1.85303,10.31494-2.95117,17.84766-4.54736,7.12988-11.98145,14.65283-20.93262,21.18213-8.95068,6.53027-18.38428,11.31152-26.56201,13.46484-3.08887.81348-5.88623,1.21582-8.33789,1.21582Z"/><path class="cls-1" d="M40.10254,68.71777h-3v-5.82031h-17.46729c-3.28174,0-5.95166-2.66992-5.95166-5.95117v-13.89258c0-3.28125,2.66992-5.95117,5.95166-5.95117h17.46729v-17.46729c0-3.28174,2.66992-5.95166,5.95117-5.95166h13.89258c3.28125,0,5.95117,2.66992,5.95117,5.95166v17.46729h9.35693v3h-10.85693c-.82861,0-1.5-.67139-1.5-1.5v-18.96729c0-1.62744-1.32373-2.95166-2.95117-2.95166h-13.89258c-1.62744,0-2.95117,1.32422-2.95117,2.95166v18.96729c0,.82861-.67139,1.5-1.5,1.5h-18.96729c-1.62744,0-2.95166,1.32373-2.95166,2.95117v13.89258c0,1.62695,1.32422,2.95117,2.95166,2.95117h18.96729c.82861,0,1.5.67188,1.5,1.5v7.32031Z"/></svg>