<?xml version="1.0" encoding="UTF-8"?><svg id="Layer_3" xmlns="http://www.w3.org/2000/svg" viewBox="0 0 100 100"><defs><style>.cls-1{fill:#fff;}</style></defs><path class="cls-1" d="M50,66.55273c-7.12842,0-14.50439-2.51074-21.92432-7.4624-2.1582-1.44043-4.69043-2.20166-7.32373-2.20166h-4.7749c-.82861,0-1.5-.67139-1.5-1.5v-10.77734c0-.82861.67139-1.5,1.5-1.5h4.7749c2.6333,0,5.16553-.76123,7.32373-2.20166,7.41992-4.95166,14.7959-7.4624,21.92432-7.4624s14.50439,2.51074,21.92432,7.4624c2.1582,1.44043,4.69043,2.20166,7.32373,2.20166h4.7749c.82861,0,1.5.67139,1.5,1.5v10.77734c0,.82861-.67139,1.5-1.5,1.5h-4.7749c-2.6333,0-5.16553.76123-7.32373,2.20166-7.41992,4.95166-14.7959,7.4624-21.92432,7.4624ZM17.47705,53.88867h3.2749c3.22803,0,6.33643.93604,8.98877,2.70654,6.91797,4.6167,13.73438,6.95752,20.25928,6.95752s13.34131-2.34082,20.25928-6.95752c2.65234-1.77051,5.76074-2.70654,8.98877-2.70654h3.2749v-7.77734h-3.2749c-3.22803,0-6.33643-.93604-8.98877-2.70654-6.91797-4.6167-13.73438-6.95752-20.25928-6.95752s-13.34131,2.34082-20.25928,6.95752c-2.65234,1.77051-5.76074,2.70654-8.98877,2.70654h-3.2749v7.77734Z"/><path class="cls-1" d="M25.20557,30.38281c-4.94238,0-7.89453-1.44727-8.10889-1.55566l1.35059-2.6792c.33105.16455,8.25,3.9375,20.43164-2.50537,13.02979-6.89062,21.12402-7.521,27.94043-2.17236l-1.85254,2.36035c-5.72607-4.49414-12.87695-3.78125-24.68555,2.46436-6.02002,3.18359-11.16943,4.08789-15.07568,4.08789Z"/><path class="cls-1" d="M81.05273,32.21143c-1.97852-2.47461-4.94824-3.68945-13.01367-1.58447-8.64307,2.25928-13.29736-1.55566-13.49121-1.71875l1.92285-2.30273c.15039.12256,3.75635,2.96143,10.81055,1.11914,8.24219-2.15381,12.90967-1.39551,16.11523,2.61377l-2.34375,1.87305Z"/></svg>