<?xml version="1.0" encoding="UTF-8"?><svg id="Layer_3" xmlns="http://www.w3.org/2000/svg" viewBox="0 0 100 100"><defs><style>.cls-1{fill:#fff;}</style></defs><path class="cls-1" d="M88.15039,48.43848h-4.85156c-5.47119,0-10.4043-3.53613-12.87354-9.22852l-5.17676-11.93359c-3.02441-6.97168-8.7251-11.13379-15.24854-11.13379s-12.22412,4.16211-15.24854,11.13379l-5.17676,11.93359c-2.46924,5.69238-7.40234,9.22852-12.87354,9.22852h-4.85156v-3h4.85156c4.25732,0,8.13525-2.84375,10.12158-7.42188l5.17676-11.93359c3.4624-7.98242,10.35986-12.94043,18.00049-12.94043s14.53809,4.95801,18.00049,12.94043l5.17676,11.93359c1.98633,4.57812,5.86426,7.42188,10.12158,7.42188h4.85156v3Z"/><path class="cls-1" d="M50,86.85742c-7.64062,0-14.53809-4.95801-18.00049-12.94043l-5.17676-11.93359c-1.98633-4.57812-5.86426-7.42188-10.12158-7.42188h-4.85156v-3h4.85156c5.47119,0,10.4043,3.53613,12.87354,9.22852l5.17676,11.93359c3.02441,6.97168,8.7251,11.13379,15.24854,11.13379s12.22412-4.16211,15.24854-11.13379l5.17676-11.93359c2.46924-5.69238,7.40234-9.22852,12.87354-9.22852h4.85156v3h-4.85156c-4.25732,0-8.13525,2.84375-10.12158,7.42188l-5.17676,11.93359c-3.4624,7.98242-10.35986,12.94043-18.00049,12.94043Z"/></svg>