<?xml version="1.0" encoding="UTF-8"?><svg id="Layer_3" xmlns="http://www.w3.org/2000/svg" viewBox="0 0 100 100"><defs><style>.cls-1{fill:#fff;}</style></defs><path class="cls-1" d="M48.17773,86.4458c-4.26904,0-8.50146-1.36475-12.05566-4.03027l-1.01562-.76221c-.38721-.29004-.81445-.52246-1.27002-.68994l-5.93164-2.18115c-4.94775-1.81836-8.46826-6.38477-8.96875-11.63281-.30859-3.23584-1.49756-6.21484-3.44678-8.70361-3.37988-4.31348-3.45752-10.39844-.18896-14.79639,2.14551-2.8877,3.32715-6.45947,3.32715-10.05664,0-6.06201,4.32568-11.26514,10.28516-12.37256l8.57715-1.59375c3.72412-.69287,7.3833-1.78369,10.875-3.24316h0c5.65332-2.36426,12.18652-.87354,16.2583,3.70654l.83936.94434c.67822.76367,1.5625,1.29395,2.55713,1.53369l2.44238.5874c7.58594,1.82666,12.88428,8.55176,12.88428,16.35449,0,.4502.06104.89795.18115,1.33008l3.24902,11.71289c1.06055,3.8208-.79443,7.77783-4.40967,9.40771-1.18408.53418-2.10059,1.49268-2.58105,2.7002l-1.80518,4.54004c-2.46777,6.20264-7.83301,10.76221-14.35205,12.19629-.36719.08105-.72607.2041-1.06738.36572l-5.74609,2.72949c-2.75586,1.30908-5.70557,1.95361-8.63721,1.95361ZM49.52197,19.15088h0c-3.6875,1.5415-7.55127,2.69385-11.48389,3.4248l-8.57764,1.59375c-4.53857.84326-7.83301,4.80664-7.83301,9.42334,0,4.2373-1.3916,8.44434-3.91895,11.8457-2.46484,3.31641-2.40625,7.90479.14209,11.15723,2.30371,2.94092,3.70898,6.46094,4.06348,10.17969.3999,4.19531,3.1543,7.76807,7.02588,9.19141l5.93213,2.18115c.729.26807,1.41309.64014,2.03418,1.10547l1.01611.76221c5.1001,3.8252,11.84717,4.50244,17.60547,1.7666l5.74658-2.72949c.54639-.25928,1.12109-.45605,1.70947-.58545,5.5459-1.22021,10.10986-5.09912,12.20898-10.37549l1.80518-4.54004c.77002-1.93457,2.23828-3.4707,4.13525-4.32568,2.25635-1.01758,3.41406-3.48682,2.75244-5.87158l-3.24902-11.71191c-.19287-.69287-.29053-1.41113-.29053-2.13281,0-6.41113-4.35352-11.93701-10.58643-13.4375l-2.44287-.58789c-1.59326-.38428-3.00977-1.23389-4.09717-2.45752l-.83887-.94385c-3.21973-3.62207-8.38818-4.7998-12.85889-2.93213Z"/><path class="cls-1" d="M48.83789,73.94922c-2.82031,0-5.61719-.90186-7.96533-2.66309l-.64307-.48291c-.20312-.15186-.42676-.27344-.66406-.36084l-3.75781-1.38135c-3.33154-1.22461-5.70166-4.29932-6.03857-7.83252-.18555-1.94482-.89941-3.73291-2.06934-5.22656-2.29248-2.92627-2.34521-7.05469-.12793-10.03906,1.28955-1.73535,1.99951-3.88135,1.99951-6.04199,0-4.10449,2.92871-7.62793,6.96387-8.37793l5.43311-1.00928c2.32129-.43164,4.60107-1.11182,6.77637-2.021h.00049c3.79834-1.58691,8.18652-.58691,10.9209,2.48975l.53174.59814c.35498.39941.81787.67676,1.3374.80176l1.54736.37256c5.05322,1.2168,8.58252,5.69629,8.58252,10.89355,0,.23535.03174.46973.09473.69678l2.05762,7.41797c.74463,2.68408-.55762,5.46289-3.09668,6.60791-.61963.27881-1.09863.78027-1.34961,1.41162l-1.14453,2.87598c-1.62988,4.09912-5.1748,7.11182-9.48291,8.05908-.19238.04248-.37988.10693-.55811.19141l-3.64014,1.729c-1.82129.86523-3.77002,1.29102-5.70752,1.29102ZM49.90186,31.28027c-2.37061.99121-4.85547,1.73242-7.38525,2.20264l-5.43359,1.00928c-2.61426.48584-4.51172,2.76904-4.51172,5.42871,0,2.80078-.92041,5.58203-2.59131,7.83105-1.41357,1.90234-1.37988,4.53418.08154,6.3999,1.52441,1.94629,2.45361,4.27539,2.68848,6.73535.2334,2.44824,1.83789,4.5293,4.09277,5.3584l3.75781,1.38135c.51074.1875.99121.44873,1.42822.77588l.64404.4834c3.06592,2.2998,7.12158,2.70605,10.58545,1.06201l3.64014-1.729c.38281-.18164.78662-.32031,1.2002-.41113,3.33496-.7334,6.0791-3.06543,7.34033-6.23779l1.14453-2.87598c.54004-1.35889,1.57129-2.43799,2.9043-3.03857,1.17969-.53174,1.78467-1.82324,1.43896-3.0708l-2.05762-7.41797c-.13525-.48828-.2041-.99219-.2041-1.49854,0-3.80566-2.58447-7.08594-6.28467-7.97656l-1.54736-.37256c-1.11816-.26953-2.11279-.86621-2.87744-1.72559l-.53174-.59814c-1.88379-2.11963-4.90576-2.80811-7.52246-1.71533h.00049Z"/><path class="cls-1" d="M49.44141,62.53857c-1.49854.00049-2.98389-.479-4.23145-1.41406l-.30322-.22705c-.03564-.02734-.07227-.04688-.11084-.06104l-1.77246-.65186c-1.85596-.68213-3.17627-2.39453-3.36328-4.36279-.07324-.76562-.35254-1.46533-.81104-2.05078-1.30078-1.66016-1.33057-4.00244-.07227-5.6958.50684-.68213.78613-1.52637.78613-2.37646,0-2.31738,1.65381-4.30664,3.93213-4.72998l2.56201-.47607c1.03809-.19287,2.05957-.49756,3.03564-.90576,2.10498-.87793,4.53418-.32422,6.04785,1.37939l.25.28076c.06055.06836.13818.11475.22559.13574l.729.17529c2.74023.66016,4.6543,3.08936,4.6543,5.90771,0,.04004.00537.07861.01562.11523l.9707,3.5c.45605,1.64551-.34277,3.34912-1.89844,4.05029-.104.04688-.18359.13037-.22559.23633l-.54004,1.35645c-.86621,2.17725-2.74951,3.77832-5.03857,4.28174l-1.80957.84717c-.96729.45947-2.00293.68555-3.03223.68555ZM51.14941,42.17432c-.30273,0-.60889.05908-.90039.18115h0c-1.17139.48926-2.39746.85498-3.64404,1.08643l-2.56201.47607c-.85742.15967-1.47998.9082-1.47998,1.78076,0,1.49023-.48926,2.96924-1.37793,4.16553-.45459.61182-.44385,1.45752.02588,2.05664.81299,1.03857,1.30811,2.27979,1.43262,3.59082.08154.85205.63574,1.5708,1.41504,1.85742l1.77197.65137c.31494.11572.61035.27637.87793.47803l.30078.2251c1.20947.90674,2.81055,1.06787,4.17725.41943l1.71631-.81543c.23877-.11279.48584-.19678.73779-.25195,1.31348-.28906,2.396-1.20898,2.89404-2.46045l.53955-1.35645c.33105-.83301.96387-1.49463,1.78125-1.86279.19629-.08838.29736-.30469.23926-.51367l-.97021-3.49805c-.08301-.29736-.125-.60693-.125-.91846,0-1.42676-.96924-2.65674-2.35693-2.99072l-.72998-.17578c-.68652-.16602-1.29639-.53223-1.76416-1.05908l-.24902-.27979c-.4541-.51074-1.09521-.78613-1.75-.78613Z"/></svg>