<?xml version="1.0" encoding="UTF-8"?><svg id="Layer_3" xmlns="http://www.w3.org/2000/svg" viewBox="0 0 100 100"><defs><style>.cls-1{fill:#fff;}</style></defs><path class="cls-1" d="M50.00049,80.42773c-.92773,0-1.85498-.23535-2.68262-.70801-8.66357-4.9375-18.16943-7.54004-28.25244-7.73535-3.77295-.07129-6.72949-3.06348-6.72949-6.81348v-32.5293c0-1.88574.75391-3.63965,2.12305-4.93848,1.36572-1.2959,3.22998-1.97363,5.12109-1.88184.38477.01855.78418.0459,1.17432.07422l-.21582,2.99219c-.36768-.02637-.74365-.05176-1.11084-.07031-1.08447-.05371-2.12061.31934-2.9043,1.0625-.76562.72656-1.1875,1.70703-1.1875,2.76172v32.5293c0,2.09863,1.66357,3.77344,3.78711,3.81348,10.59033.20605,20.57666,2.94043,29.68115,8.12891.73877.42188,1.65479.4209,2.39062.00098,9.10547-5.18945,19.0918-7.92383,29.68115-8.12988,2.12451-.04004,3.78809-1.71484,3.78809-3.81348v-32.5293c0-1.05469-.42188-2.03516-1.1875-2.76172-.78223-.74219-1.8042-1.11816-2.89844-1.0625-.37305.01855-.74902.04395-1.1167.07031l-.21582-2.99219c.39014-.02832.78955-.05566,1.18018-.07422,1.8877-.10742,3.74951.58594,5.11523,1.88184,1.36914,1.29883,2.12305,3.05273,2.12305,4.93848v32.5293c0,3.75-2.95654,6.74219-6.73047,6.81348-10.08203.19531-19.58789,2.79785-28.25244,7.73633-.82666.47168-1.75391.70703-2.68066.70703Z"/><path class="cls-1" d="M50,72.52246c-.27295,0-.54639-.07422-.7876-.22363-7.41992-4.57812-15.60352-6.9834-24.32275-7.14844-3.16455-.05859-5.73926-2.66895-5.73926-5.81738V25.39355c0-1.6084.64209-3.10352,1.80859-4.20996,1.16309-1.10352,2.75537-1.67871,4.36328-1.60547,8.19873.42773,16.49707,2.7998,24.67773,7.05371,8.18066-4.25391,16.479-6.62598,24.67773-7.05371h0c1.61719-.07617,3.20068.50195,4.36328,1.60547,1.1665,1.10645,1.80859,2.60156,1.80859,4.20996v33.93945c0,3.14844-2.57471,5.75879-5.73975,5.81738-8.71875.16504-16.90234,2.57031-24.32227,7.14844-.24121.14941-.51465.22363-.7876.22363ZM25.0083,22.57031c-.74512,0-1.44434.27637-1.98389.78906-.56348.53516-.87402,1.25684-.87402,2.03418v33.93945c0,1.55078,1.22803,2.78809,2.79541,2.81738,8.95703.16992,17.38086,2.56445,25.0542,7.11914,7.67334-4.55469,16.09717-6.94922,25.05371-7.11914,1.56787-.0293,2.7959-1.2666,2.7959-2.81738V25.39355c0-.77734-.31055-1.49902-.87402-2.03418-.57764-.54883-1.34082-.82812-2.1416-.78516-7.99219.41699-16.10986,2.79785-24.12793,7.07617-.44141.23633-.9707.23633-1.41211,0-8.01807-4.27832-16.13574-6.65918-24.12793-7.07617-.05273-.00293-.10547-.00391-.15771-.00391Z"/><path class="cls-1" d="M50.70605,42.89258l-1.41211-2.64648c5.56982-2.97266,11.22559-4.96777,16.81104-5.93164l.50977,2.95703c-5.26904.9082-10.62158,2.7998-15.90869,5.62109Z"/><path class="cls-1" d="M50,43.06934c-.24268,0-.48584-.05859-.70605-.17676-5.2876-2.82129-10.64014-4.71289-15.90869-5.62109l.50977-2.95703c5.35254.92383,10.771,2.79492,16.1167,5.56641l1.53955-.78223,1.35938,2.67383-2.23096,1.13379c-.21387.1084-.44678.16309-.67969.16309Z"/><path class="cls-1" d="M60.93945,57.82227l-.82422-2.88477c2.5708-.73438,5.19189-1.29688,7.7915-1.67188l.42871,2.96875c-2.46631.35645-4.95459.89062-7.396,1.58789Z"/><path class="cls-1" d="M61.29346,50.82812l-.82324-2.88477c2.57812-.73633,5.19971-1.29883,7.79199-1.67188l.42773,2.96875c-2.45898.35449-4.94727.88867-7.39648,1.58789Z"/><path class="cls-1" d="M38.70654,50.82812c-2.44922-.69922-4.9375-1.2334-7.39648-1.58789l.42773-2.96875c2.59229.37305,5.21387.93555,7.79199,1.67188l-.82324,2.88477Z"/></svg>