<?xml version="1.0" encoding="UTF-8"?><svg id="Layer_3" xmlns="http://www.w3.org/2000/svg" viewBox="0 0 100 100"><defs><style>.cls-1{fill:#fff;}</style></defs><path class="cls-1" d="M78.52344,66.45996l-2.76172-1.17188c2.02734-4.7793,3.05566-9.92334,3.05566-15.28809,0-18.81934-12.92773-34.13037-28.81738-34.13037-7.97656,0-15.67578,3.98975-21.12305,10.9458l-2.36133-1.84961c6.01953-7.6875,14.5791-12.09619,23.48438-12.09619,17.54395,0,31.81738,16.65674,31.81738,37.13037,0,5.76953-1.1084,11.30762-3.29395,16.45996Z"/><path class="cls-1" d="M50,87.13037c-17.54395,0-31.81738-16.65674-31.81738-37.13037,0-4.98535.83105-9.82227,2.4707-14.37695.25488-.70752.53613-1.39697.82617-2.08057l2.76172,1.17188c-.26855.63281-.53027,1.27051-.76562,1.9248-1.52148,4.22754-2.29297,8.72314-2.29297,13.36084,0,18.81934,12.92773,34.13037,28.81738,34.13037,7.98633,0,15.68848-3.98682,21.13184-10.93848l2.36133,1.84961c-6.01562,7.68262-14.57812,12.08887-23.49316,12.08887Z"/><path class="cls-1" d="M49.97363,37.70312c-3.66016,0-6.63867-2.97803-6.63867-6.63867s2.97852-6.63867,6.63867-6.63867,6.63867,2.97803,6.63867,6.63867-2.97852,6.63867-6.63867,6.63867ZM49.97363,27.42578c-2.00684,0-3.63867,1.63232-3.63867,3.63867s1.63184,3.63867,3.63867,3.63867,3.63867-1.63232,3.63867-3.63867-1.63184-3.63867-3.63867-3.63867Z"/><path class="cls-1" d="M48.03418,54.04834c-1.74316,0-3.44922-.28516-5-.84961-2.67285-.97266-4.4502-2.62646-4.87695-4.53662-.43457-1.94141.5332-3.98535,2.72461-5.75391,1.89941-1.53369,4.57617-2.74268,7.53711-3.40381,6.6875-1.49316,12.35156.19238,13.18457,3.91846v.00049c.88965,3.98486-3.88672,8.86182-10.02246,10.23242-1.1748.2627-2.36914.39258-3.54688.39258ZM53.02734,41.97461c-1.18652,0-2.51758.13672-3.9541.45752-2.4834.55469-4.78223,1.5791-6.30762,2.81006-1.21973.98486-1.84766,2.01855-1.68066,2.76514.14453.64795,1.01074,1.65723,2.97559,2.37256,2.03809.74072,4.54102.86865,6.86621.34814,5.16797-1.1543,8.11621-5.00439,7.74902-6.65039-.24219-1.07812-2.40137-2.10303-5.64844-2.10303Z"/><path class="cls-1" d="M56.25,75.58252c-2.45801,0-4.66016-2.67969-6.25-5.89062-1.78125,3.59668-4.34082,6.52441-7.14648,5.771-1.03809-.27832-2.8418-1.35059-3.2627-5.40332-.26172-2.52002.06348-5.65674.91504-8.83301,1.06934-3.98535,5.53809-5.76904,9.49414-5.76904,3.95508,0,8.4248,1.78418,9.49414,5.76904h0c.85156,3.17627,1.17676,6.31299.91504,8.83301-.4209,4.05273-2.22461,5.125-3.2627,5.40332-.30176.08105-.60156.11963-.89648.11963ZM50,64.26074c.64355,0,1.21484.41064,1.4209,1.02002,1.72656,5.11426,4.18555,7.4917,4.94824,7.28467.30371-.08154.85938-.91797,1.05566-2.81592.22168-2.13281-.08008-4.95605-.8291-7.74561h0c-.65625-2.4502-3.78613-3.54639-6.5957-3.54639s-5.93945,1.09619-6.5957,3.54639c-.74902,2.78955-1.05078,5.61279-.8291,7.74561.19629,1.89795.75195,2.73438,1.05566,2.81592.78223.20801,3.22266-2.17578,4.94824-7.28467.20605-.60938.77734-1.02002,1.4209-1.02002Z"/></svg>