<?xml version="1.0" encoding="UTF-8"?><svg id="Layer_1" xmlns="http://www.w3.org/2000/svg" viewBox="0 0 24 24"><defs><style>.cls-1{fill:none;stroke:#004a52;stroke-linecap:round;stroke-linejoin:round;stroke-width:1.5px;}</style></defs><path class="cls-1" d="M6.71741,4.02022c.73652-.37834,1.63966-.15836,2.15265.49159.46082.58384,1.08203,1.37116,1.6127,2.04379.60233.76345.47089,1.86997-.29284,2.47193l-.91971.72491c.49418,1.00653,1.11459,2.02333,1.88902,3.00587s1.61815,1.82332,2.48138,2.53897l.91971-.72491c.76373-.60197,1.87034-.47126,2.47195.29276.53003.67312,1.15042,1.46106,1.61044,2.04552.51211.65065.51499,1.58019-.02494,2.20793-.11908.13845-.25081.2653-.3956.37942-2.27427,1.79256-6.79666-.1528-10.101-4.34511S3.98176,6.10881,6.25603,4.31625c.14479-.11413.29893-.21258.46138-.29603Z"/></svg>