<?xml version="1.0" encoding="UTF-8"?><svg id="Layer_3" xmlns="http://www.w3.org/2000/svg" viewBox="0 0 100 100"><defs><style>.cls-1{fill:#fff;}</style></defs><path class="cls-1" d="M50,84.4248c-18.98145,0-34.4248-15.44287-34.4248-34.4248S31.01855,15.5752,50,15.5752s34.4248,15.44287,34.4248,34.4248-15.44336,34.4248-34.4248,34.4248ZM50,18.5752c-17.32812,0-31.4248,14.09717-31.4248,31.4248s14.09668,31.4248,31.4248,31.4248,31.4248-14.09717,31.4248-31.4248-14.09668-31.4248-31.4248-31.4248Z"/><path class="cls-1" d="M50,74.73291c-13.6377,0-24.7334-11.09521-24.7334-24.73291s11.0957-24.73291,24.7334-24.73291,24.7334,11.09521,24.7334,24.73291-11.0957,24.73291-24.7334,24.73291ZM50,28.26709c-11.9834,0-21.7334,9.74951-21.7334,21.73291s9.75,21.73291,21.7334,21.73291,21.7334-9.74951,21.7334-21.73291-9.75-21.73291-21.7334-21.73291Z"/><path class="cls-1" d="M50,64.67334c-8.09082,0-14.67383-6.58252-14.67383-14.67334s6.58301-14.67334,14.67383-14.67334,14.67383,6.58252,14.67383,14.67334-6.58301,14.67334-14.67383,14.67334ZM50,38.32666c-6.43652,0-11.67383,5.23682-11.67383,11.67334s5.2373,11.67334,11.67383,11.67334,11.67383-5.23682,11.67383-11.67334-5.2373-11.67334-11.67383-11.67334Z"/><circle class="cls-1" cx="50" cy="50" r="4.96588"/></svg>