<?xml version="1.0" encoding="UTF-8"?><svg id="Layer_3" xmlns="http://www.w3.org/2000/svg" viewBox="0 0 100 100"><defs><style>.cls-1{fill:#fff;}</style></defs><path class="cls-1" d="M50,86.85742c-20.32373,0-36.85791-16.53418-36.85791-36.85742S29.67627,13.14258,50,13.14258s36.85791,16.53418,36.85791,36.85742-16.53418,36.85742-36.85791,36.85742ZM50,16.14258c-18.66943,0-33.85791,15.18848-33.85791,33.85742s15.18848,33.85742,33.85791,33.85742,33.85791-15.18848,33.85791-33.85742-15.18848-33.85742-33.85791-33.85742Z"/><path class="cls-1" d="M50,74.00879c-13.23828,0-24.00879-10.77051-24.00879-24.00879s10.77051-24.00879,24.00879-24.00879,24.00879,10.77051,24.00879,24.00879-10.77051,24.00879-24.00879,24.00879ZM50,28.99121c-11.58447,0-21.00879,9.4248-21.00879,21.00879s9.42432,21.00879,21.00879,21.00879,21.00879-9.4248,21.00879-21.00879-9.42432-21.00879-21.00879-21.00879Z"/><path class="cls-1" d="M16.14209,50h-3c0-20.32324,16.53418-36.85742,36.85791-36.85742v3c-18.66943,0-33.85791,15.18848-33.85791,33.85742Z"/><path class="cls-1" d="M28.99121,50h-3c0-13.23828,10.77051-24.00879,24.00879-24.00879v3c-11.58447,0-21.00879,9.4248-21.00879,21.00879Z"/><path class="cls-1" d="M50,28.99121v-3c2.71533,0,4.9248-2.20898,4.9248-4.9248,0-2.71484-2.20947-4.92383-4.9248-4.92383v-3c4.36963,0,7.9248,3.55469,7.9248,7.92383,0,4.37012-3.55518,7.9248-7.9248,7.9248Z"/></svg>