<?xml version="1.0" encoding="UTF-8"?><svg id="Layer_3" xmlns="http://www.w3.org/2000/svg" viewBox="0 0 100 100"><defs><style>.cls-1{fill:#fff;}</style></defs><path class="cls-1" d="M50,73.0874c-9.2124,0-16.70703-7.49463-16.70703-16.70654,0-8.30127,5.9458-15.24512,14.1377-16.51074l.45801,2.96484c-6.61084,1.02148-11.5957,6.84473-11.5957,13.5459,0,7.55762,6.14893,13.70654,13.70703,13.70654v3Z"/><path class="cls-1" d="M50,73.0874v-3c14.20215,0,25.75635-11.5542,25.75635-25.75635s-11.5542-25.75586-25.75635-25.75586v-3c15.85645,0,28.75635,12.8999,28.75635,28.75586s-12.8999,28.75635-28.75635,28.75635Z"/><path class="cls-1" d="M46.52979,47.51953l-2.68262-1.34277,2.12695-4.25-4.25049-2.12695,1.34277-2.68262,5.5918,2.79785c.35547.17773.62598.48975.75195.86719.12549.37793.09619.78955-.08203,1.14551l-2.79834,5.5918Z"/><path class="cls-1" d="M20.8999,31.47705l-2.22266-2.01465c8.00098-8.82568,19.41797-13.88721,31.32275-13.88721v3c-11.06006,0-21.6665,4.70264-29.1001,12.90186Z"/><path class="cls-1" d="M52.56934,60.12988l-.45801-2.96484c6.61084-1.02148,11.5957-6.84473,11.5957-13.5459,0-7.55762-6.14893-13.70654-13.70703-13.70654v-3c9.2124,0,16.70703,7.49463,16.70703,16.70654,0,8.30127-5.9458,15.24512-14.1377,16.51074Z"/><path class="cls-1" d="M50,84.4248c-15.85645,0-28.75635-12.8999-28.75635-28.75586s12.8999-28.75635,28.75635-28.75635v3c-14.20215,0-25.75635,11.5542-25.75635,25.75635s11.5542,25.75586,25.75635,25.75586v3Z"/><path class="cls-1" d="M56.93359,62.88281l-5.5918-2.79785c-.35547-.17773-.62598-.48975-.75195-.86719-.12549-.37793-.09619-.78955.08203-1.14551l2.79834-5.5918,2.68262,1.34277-2.12695,4.25,4.25049,2.12695-1.34277,2.68262Z"/><path class="cls-1" d="M50,84.4248v-3c11.06006,0,21.6665-4.70264,29.1001-12.90186l2.22266,2.01465c-8.00098,8.82568-19.41797,13.88721-31.32275,13.88721Z"/></svg>