<?xml version="1.0" encoding="UTF-8"?><svg id="Layer_3" xmlns="http://www.w3.org/2000/svg" viewBox="0 0 100 100"><defs><style>.cls-1{fill:#fff;}</style></defs><path class="cls-1" d="M19.14062,85.25391v-3c1.98047,0,3.70508-1.27148,4.29199-3.16406l4.9834-16.10059c.72656-2.35059,2.86914-3.92969,5.33008-3.92969,2.55078,0,4.75781,1.70898,5.39844,4.16895l1.63086,4.42676c.34668,1.14453,1.24219,1.24023,1.55371,1.22266.2832,0,1.20215-.08398,1.52246-1.12402l1.00293-3.25098,2.86719.88477-1.00293,3.24902c-.60645,1.96973-2.32715,3.24121-4.3877,3.24121h-.01758c-2.06738-.00781-3.78809-1.29199-4.38184-3.27344l-1.62891-4.41309c-.01953-.05371-.03711-.1084-.0498-.16309-.28223-1.15918-1.31348-1.96875-2.50684-1.96875-1.1377,0-2.12793.72949-2.46484,1.81641l-4.9834,16.10059c-.97754,3.15625-3.85352,5.27734-7.15723,5.27734Z"/><path class="cls-1" d="M49.3584,60.05664l-2.86523-.88672,4.9834-16.10059c.72754-2.35107,2.87012-3.93066,5.33105-3.93066,2.55469,0,4.76562,1.7168,5.40234,4.18457l2.60253,7.54004c.01563.04395.02833.08887.03907.13428.2832,1.15869,1.31348,1.96826,2.50684,1.96826h.60156c1.28613,0,2.35938-.92383,2.55078-2.1958l3.79395-22.03223c.48828-3.24023,3.24707-5.61426,6.55469-5.61426v3c-1.81152,0-3.32227,1.30078-3.59277,3.09229l-3.79395,22.03223c-.41016,2.7207-2.73047,4.71777-5.5127,4.71777h-.60156c-2.55566,0-4.7666-1.7168-5.40332-4.18555l-2.60156-7.53906c-.01465-.04395-.02832-.08838-.03906-.1333-.2832-1.15967-1.31445-1.96924-2.50684-1.96924-1.1377,0-2.12891.73047-2.46582,1.81787l-4.9834,16.1001Z"/><rect class="cls-1" x="62.87793" y="16.24609" width="3" height="10.39502"/><rect class="cls-1" x="59.17969" y="19.94336" width="10.39551" height="3"/><rect class="cls-1" x="50.62012" y="25.73389" width="3" height="7.70947"/><rect class="cls-1" x="48.26562" y="28.08838" width="7.70898" height="3"/></svg>