<?xml version="1.0" encoding="UTF-8"?><svg id="Layer_3" xmlns="http://www.w3.org/2000/svg" viewBox="0 0 100 100"><defs><style>.cls-1{fill:#fff;}</style></defs><path class="cls-1" d="M56.00049,51.13379c-15.79883-20.19775.01709-34.81934.17871-34.96484l2.00586,2.23047-1.00293-1.11523,1.00537,1.11279c-.57275.52002-13.86523,12.93799.17627,30.88818l-2.36328,1.84863Z"/><path class="cls-1" d="M58.18506,84.24951l-2.00586-2.23047,1.00293,1.11523-1.00537-1.11328c.57275-.51953,13.86523-12.9375-.17627-30.88721l2.36328-1.84863c15.79883,20.19775-.01709,34.81934-.17871,34.96436Z"/><circle class="cls-1" cx="43.99568" cy="18.4752" r="1.7867"/><circle class="cls-1" cx="39.04631" cy="26.52121" r="2.47486"/><circle class="cls-1" cx="39.04631" cy="37.79933" r="2.94771"/><circle class="cls-1" cx="46.09491" cy="81.5248" r="1.7867"/><circle class="cls-1" cx="50.77735" cy="73.47918" r="2.47486"/><circle class="cls-1" cx="50.77735" cy="62.20067" r="2.94771"/><circle class="cls-1" cx="44.94266" cy="50" r="3.23675"/></svg>