<?xml version="1.0" encoding="UTF-8"?><svg id="Layer_3" xmlns="http://www.w3.org/2000/svg" viewBox="0 0 100 100"><defs><style>.cls-1{fill:#fff;}</style></defs><path class="cls-1" d="M76.94629,86.04004H23.05371c-.82861,0-1.5-.67188-1.5-1.5V16.70996c0-.82812.67139-1.5,1.5-1.5h18.6416v3h-17.1416v64.83008h50.89258V18.20996h-17.1416v-3h18.6416c.82861,0,1.5.67188,1.5,1.5v67.83008c0,.82812-.67139,1.5-1.5,1.5Z"/><path class="cls-1" d="M55.31885,22.70801h-10.6377c-2.47363,0-4.48584-2.01172-4.48584-4.48535v-3.02539c0-2.47363,2.01221-4.48535,4.48584-4.48535h10.6377c2.47363,0,4.48584,2.01172,4.48584,4.48535v3.02539c0,2.47363-2.01221,4.48535-4.48584,4.48535ZM44.68115,13.71191c-.81934,0-1.48584.66602-1.48584,1.48535v3.02539c0,.81934.6665,1.48535,1.48584,1.48535h10.6377c.81934,0,1.48584-.66602,1.48584-1.48535v-3.02539c0-.81934-.6665-1.48535-1.48584-1.48535h-10.6377Z"/><path class="cls-1" d="M37.39014,45.90332c-.38379,0-.76758-.14648-1.06055-.43945l-3.6084-3.6084,2.12109-2.12109,2.54785,2.54785,5.1377-5.1377,2.12109,2.12109-6.19824,6.19824c-.29297.29297-.67676.43945-1.06055.43945Z"/><rect class="cls-1" x="51.62793" y="40.3916" width="14.59033" height="3"/><path class="cls-1" d="M37.39014,56.57227c-.38379,0-.76758-.14648-1.06055-.43945l-3.6084-3.6084,2.12109-2.12109,2.54785,2.54785,5.1377-5.1377,2.12109,2.12109-6.19824,6.19824c-.29297.29297-.67676.43945-1.06055.43945Z"/><rect class="cls-1" x="51.62793" y="51.06055" width="14.59033" height="3"/><path class="cls-1" d="M37.39014,67.24121c-.39795,0-.7793-.1582-1.06055-.43945l-3.6084-3.6084,2.12109-2.12109,2.54785,2.54785,5.1377-5.13867,2.12109,2.12109-6.19824,6.19922c-.28125.28125-.6626.43945-1.06055.43945Z"/><rect class="cls-1" x="51.62793" y="61.72949" width="14.59033" height="3"/></svg>