<?xml version="1.0" encoding="UTF-8"?><svg id="Layer_3" xmlns="http://www.w3.org/2000/svg" viewBox="0 0 100 100"><defs><style>.cls-1{fill:#fff;}</style></defs><path class="cls-1" d="M58.50732,85.96094c-5.51807,0-10.00732-4.48926-10.00732-10.00684v-8.64648c0-.08398.00684-.16699.02051-.24805-.00586-3.8291,2.43457-7.21289,6.15234-8.47949,2.69971-.91895,5.28223-2.19043,7.67627-3.77832,4.62012-3.06445,8.4292-7.25586,11.01416-12.11816h0c3.68115-6.92578,6.66016-7.76953,8.51611-7.25928,1.85498.51172,3.98535,2.76807,3.59814,10.61572-.50293,10.19727-5.87695,19.65039-14.37451,25.28711-1.63281,1.08008-2.58789,2.80176-2.58789,4.62695,0,5.51758-4.48926,10.00684-10.00781,10.00684ZM51.5,67.58008v8.37402c0,3.86328,3.14355,7.00684,7.00732,7.00684,3.86426,0,7.00781-3.14355,7.00781-7.00684,0-2.83496,1.45801-5.49219,3.8999-7.10645,7.73633-5.13281,12.60986-13.70605,13.06641-22.95508.28564-5.79053-.94531-7.45068-1.39941-7.57568-.44385-.12695-2.35596.66992-5.06934,5.7749h0c-2.81885,5.30225-6.97021,9.87012-12.00537,13.20996-2.6084,1.73047-5.42383,3.11621-8.36768,4.11816-2.55273.86914-4.20703,3.21484-4.11572,5.83594.00391.10938-.00439.21777-.02393.32422Z"/><path class="cls-1" d="M41.49268,85.96094c-5.51855,0-10.00781-4.48926-10.00781-10.00684,0-1.8252-.95508-3.54688-2.5542-4.60449-8.53125-5.65918-13.90527-15.1123-14.4082-25.30957-.38721-7.84766,1.74316-10.104,3.59814-10.61572,1.85205-.51025,4.83496.33447,8.51611,7.25928,2.58496,4.86279,6.39355,9.05273,11.01416,12.11816,2.39404,1.58789,4.97656,2.85938,7.67627,3.77832,3.71875,1.2666,6.16016,4.65234,6.15234,8.48438.01367.0791.02051.16016.02051.24316v8.64648c0,5.51758-4.48926,10.00684-10.00732,10.00684ZM19.0166,38.30469c-.03809,0-.07129.00439-.09863.01221-.4541.125-1.68506,1.78516-1.39941,7.57568.45654,9.24902,5.33008,17.82227,13.03662,22.93457.01807.01172.06738.0459.08496.05859,2.38672,1.57617,3.84473,4.2334,3.84473,7.06836,0,3.86328,3.14355,7.00684,7.00781,7.00684,3.86377,0,7.00732-3.14355,7.00732-7.00684v-8.38574c-.01953-.10254-.02783-.20703-.02393-.3125.09131-2.62109-1.56299-4.9668-4.11572-5.83594-2.94385-1.00195-5.75928-2.3877-8.36768-4.11816-5.03516-3.33984-9.18652-7.90771-12.00537-13.20996h0c-2.54834-4.79443-4.38135-5.78711-4.9707-5.78711Z"/><path class="cls-1" d="M49.99951,30.18896c-4.45264,0-8.0752-3.62256-8.0752-8.0752s3.62256-8.0752,8.0752-8.0752,8.0752,3.62256,8.0752,8.0752-3.62256,8.0752-8.0752,8.0752ZM49.99951,17.03857c-2.79834,0-5.0752,2.27686-5.0752,5.0752s2.27686,5.0752,5.0752,5.0752,5.0752-2.27686,5.0752-5.0752-2.27686-5.0752-5.0752-5.0752Z"/><path class="cls-1" d="M47.51758,51.10352c-2.18115,0-4.31494-.35596-6.25391-1.06152-3.28271-1.19482-5.46094-3.20068-5.9751-5.50244-.51855-2.3208.66797-4.78711,3.34033-6.94482,2.38184-1.92236,5.74561-3.43994,9.47266-4.27246,3.72754-.83203,7.41797-.89062,10.39014-.16553,3.3374.81494,5.46045,2.54199,5.979,4.8623.51465,2.30225-.60254,5.04395-3.06494,7.52246-2.43799,2.4541-5.79102,4.25439-9.44092,5.06982-1.47314.3291-2.97119.49219-4.44727.49219ZM53.9585,35.64893c-1.64648,0-3.4126.20117-5.20264.60107-3.28564.73389-6.21289,2.04053-8.24219,3.6792-1.71289,1.38281-2.55029,2.82471-2.29736,3.95605.27393,1.22656,1.87305,2.53662,4.07324,3.3374,2.68018.97461,5.96777,1.1416,9.021.46094,3.05322-.68213,5.95703-2.2334,7.9668-4.25635,1.65039-1.66162,2.53955-3.52734,2.26562-4.75391-.25293-1.13135-1.62451-2.08008-3.7627-2.60205-1.15332-.28174-2.4458-.42236-3.82178-.42236Z"/></svg>