<?xml version="1.0" encoding="UTF-8"?><svg id="Layer_3" xmlns="http://www.w3.org/2000/svg" viewBox="0 0 100 100"><defs><style>.cls-1{fill:#fff;}</style></defs><path class="cls-1" d="M50,84.4248c-18.98193,0-34.4248-15.44287-34.4248-34.4248S31.01807,15.5752,50,15.5752s34.4248,15.44287,34.4248,34.4248-15.44287,34.4248-34.4248,34.4248ZM50,18.5752c-17.32764,0-31.4248,14.09717-31.4248,31.4248s14.09717,31.4248,31.4248,31.4248,31.4248-14.09717,31.4248-31.4248-14.09717-31.4248-31.4248-31.4248Z"/><path class="cls-1" d="M49.97363,37.70312c-3.66064,0-6.63867-2.97803-6.63867-6.63867s2.97803-6.63867,6.63867-6.63867,6.63867,2.97803,6.63867,6.63867-2.97803,6.63867-6.63867,6.63867ZM49.97363,27.42578c-2.00635,0-3.63867,1.63232-3.63867,3.63867s1.63232,3.63867,3.63867,3.63867,3.63867-1.63232,3.63867-3.63867-1.63232-3.63867-3.63867-3.63867Z"/><path class="cls-1" d="M48.03271,54.0459c-4.85645,0-9.15771-2.16992-9.87598-5.38379-.83252-3.72803,3.5791-7.66504,10.26221-9.15771,2.96045-.66113,5.89795-.70703,8.26953-.12793,2.73535.66797,4.48096,2.10547,4.91455,4.04688.42676,1.91064-.47803,4.16357-2.48291,6.18164-1.94873,1.96143-4.62598,3.40039-7.53906,4.05078-1.18701.26514-2.38379.39014-3.54834.39014ZM53.07422,41.97559c-1.27344,0-2.64209.15283-4.00098.45654-5.36914,1.19922-8.31738,4.10352-7.98877,5.57568.36865,1.646,4.67725,3.87695,9.84229,2.72021,2.32666-.52002,4.5376-1.69971,6.06543-3.23779,1.47363-1.4834,1.82764-2.76562,1.68311-3.4126h0c-.16699-.74707-1.17578-1.41504-2.69873-1.78711-.86182-.21045-1.84961-.31494-2.90234-.31494Z"/><path class="cls-1" d="M56.24951,75.58252c-2.4585,0-4.66016-2.6792-6.24951-5.89014-1.78076,3.59619-4.33105,6.52783-7.14648,5.77051-1.0376-.27832-2.8418-1.3501-3.2627-5.40332-.26172-2.51953.06299-5.65674.91504-8.83301,1.06885-3.98535,5.53857-5.76904,9.49414-5.76904s8.42529,1.78369,9.49414,5.76904c.85205,3.17627,1.17676,6.31348.91504,8.83301-.4209,4.05322-2.2251,5.125-3.2627,5.40332-.30225.08105-.60156.11963-.89697.11963ZM50,64.26074c.64355,0,1.21533.41064,1.42139,1.02051,1.72461,5.1084,4.16406,7.49023,4.94775,7.28418.30371-.08154.85938-.91797,1.05615-2.81592.22461-2.16406-.06934-4.91504-.82861-7.74561-.65723-2.44971-3.78662-3.54639-6.59668-3.54639s-5.93945,1.09668-6.59668,3.54639c-.75928,2.83057-1.05322,5.58154-.82861,7.74561.19678,1.89795.75244,2.73438,1.05615,2.81592.75928.20117,3.22266-2.17285,4.94775-7.28418.20605-.60986.77783-1.02051,1.42139-1.02051Z"/></svg>